<svg xmlns="http://www.w3.org/2000/svg" xmlns:xlink="http://www.w3.org/1999/xlink" xmlns:lucid="lucid" width="3529.36" height="1362"><g transform="translate(1281 161)" lucid:page-tab-id="0_0"><path d="M-1500-500h4000v2000h-4000z" fill="#fff"/><path d="M-20 468a12.8 12.8 0 0 1 4.6-9.84l89.2-74.32A16.57 16.57 0 0 1 84.4 380H934a6 6 0 0 1 6 6v709.6a16.57 16.57 0 0 1-3.84 10.6l-74.32 89.2a12.8 12.8 0 0 1-9.84 4.6H-14a6 6 0 0 1-6-6z" stroke="#000" stroke-width="2" fill="#fff"/><path d="M-14 462a2.17 2.17 0 0 1-1.4-3.84l89.2-74.32A16.57 16.57 0 0 1 84.4 380H934a2.48 2.48 0 0 1 1.76 4.24l-73.52 73.52A14.48 14.48 0 0 1 852 462z" stroke="#000" stroke-width="2" fill="#e6e6e6"/><path d="M858 468a14.48 14.48 0 0 1 4.24-10.24l73.52-73.52A2.48 2.48 0 0 1 940 386v709.6a16.57 16.57 0 0 1-3.84 10.6l-74.32 89.2a2.17 2.17 0 0 1-3.84-1.4z" stroke="#000" stroke-width="2" fill="#ccc"/><use xlink:href="#a" transform="matrix(1,0,0,1,-12,470) translate(0 21.52777777777778)"/><use xlink:href="#b" transform="matrix(1,0,0,1,-12,470) translate(134.36414930555557 21.52777777777778)"/><use xlink:href="#c" transform="matrix(1,0,0,1,-12,470) translate(197.27647569444446 21.52777777777778)"/><use xlink:href="#d" transform="matrix(1,0,0,1,-12,470) translate(321.33246527777777 21.52777777777778)"/><path d="M0 586a12.8 12.8 0 0 1 4.6-9.84l38.8-32.32A16.57 16.57 0 0 1 54 540h720a6 6 0 0 1 6 6v340a16.57 16.57 0 0 1-3.84 10.6l-32.32 38.8A12.8 12.8 0 0 1 734 940H6a6 6 0 0 1-6-6z" stroke="#000" stroke-width="2" fill="#fff"/><path d="M6 580a2.17 2.17 0 0 1-1.4-3.84l38.8-32.32A16.57 16.57 0 0 1 54 540h720a2.48 2.48 0 0 1 1.76 4.24l-31.52 31.52A14.48 14.48 0 0 1 734 580z" stroke="#000" stroke-width="2" fill="#e6e6e6"/><path d="M740 586a14.48 14.48 0 0 1 4.24-10.24l31.52-31.52A2.48 2.48 0 0 1 780 546v340a16.57 16.57 0 0 1-3.84 10.6l-32.32 38.8A2.17 2.17 0 0 1 740 934z" stroke="#000" stroke-width="2" fill="#ccc"/><use xlink:href="#e" transform="matrix(1,0,0,1,8,588) translate(0 21.52777777777778)"/><path d="M40 646a6 6 0 0 1 6-6h628a6 6 0 0 1 6 6v248a6 6 0 0 1-6 6H46a6 6 0 0 1-6-6z" stroke="#000" stroke-width="2" fill="#fff"/><path d="M180 666a6 6 0 0 1 6-6h393a6 6 0 0 1 6 6v68a6 6 0 0 1-6 6H186a6 6 0 0 1-6-6z" fill="#fff"/><use xlink:href="#f" transform="matrix(1,0,0,1,180,660) translate(130.91211805555557 31.84027777777778)"/><use xlink:href="#g" transform="matrix(1,0,0,1,180,660) translate(85.67557291666668 64.10590277777777)"/><use xlink:href="#h" transform="matrix(1,0,0,1,180,660) translate(199.64041666666668 64.10590277777777)"/><use xlink:href="#i" transform="matrix(1,0,0,1,180,660) translate(283.84180555555554 64.10590277777777)"/><path d="M80 786a6 6 0 0 1 6-6h208a6 6 0 0 1 6 6v89.25a6 6 0 0 1-6 6H86a6 6 0 0 1-6-6z" stroke="#000" stroke-width="2" fill="#fff"/><path d="M60 801.3a6 6 0 0 1 6-6h28a6 6 0 0 1 6 6v8a6 6 0 0 1-6 6H66a6 6 0 0 1-6-6zM60 851.94a6 6 0 0 1 6-6h28a6 6 0 0 1 6 6v8a6 6 0 0 1-6 6H66a6 6 0 0 1-6-6z" stroke="#000" stroke-width="2" fill="#fff"/><use xlink:href="#j" transform="matrix(1,0,0,1,108,790.125) translate(53.775390625 32.450954861111114)"/><use xlink:href="#k" transform="matrix(1,0,0,1,108,790.125) translate(18.022352430555557 64.71657986111111)"/><path d="M400 786a6 6 0 0 1 6-6h208a6 6 0 0 1 6 6v89.25a6 6 0 0 1-6 6H406a6 6 0 0 1-6-6z" stroke="#000" stroke-width="2" fill="#fff"/><path d="M380 801.3a6 6 0 0 1 6-6h28a6 6 0 0 1 6 6v8a6 6 0 0 1-6 6h-28a6 6 0 0 1-6-6zM380 851.94a6 6 0 0 1 6-6h28a6 6 0 0 1 6 6v8a6 6 0 0 1-6 6h-28a6 6 0 0 1-6-6z" stroke="#000" stroke-width="2" fill="#fff"/><use xlink:href="#l" transform="matrix(1,0,0,1,428,790.125) translate(63.60611979166667 32.450954861111114)"/><use xlink:href="#m" transform="matrix(1,0,0,1,428,790.125) translate(22.123914930555564 64.71657986111111)"/><path d="M633.7 1168c0 6.63-58.2 12-130 12s-130-5.37-130-12v-96c0-6.63 58.2-12 130-12s130 5.37 130 12z" stroke="#000" stroke-width="2" fill="#fff"/><path d="M633.7 1072c0 6.63-58.2 12-130 12s-130-5.37-130-12" stroke="#000" stroke-width="2" fill="none"/><use xlink:href="#n" transform="matrix(1,0,0,1,378.6901277162874,1089) translate(75.32009548611111 51.09027777777778)"/><path d="M260-128a12.8 12.8 0 0 1 4.6-9.84l22-18.32a16.57 16.57 0 0 1 10.6-3.84H794a6 6 0 0 1 6 6V62.8a16.57 16.57 0 0 1-3.84 10.6l-18.32 22A12.8 12.8 0 0 1 768 100H266a6 6 0 0 1-6-6z" stroke="#000" stroke-width="2" fill="#fff"/><path d="M266-134a2.17 2.17 0 0 1-1.4-3.84l22-18.32a16.57 16.57 0 0 1 10.6-3.84H794a2.48 2.48 0 0 1 1.76 4.24l-17.52 17.52A14.48 14.48 0 0 1 768-134z" stroke="#000" stroke-width="2" fill="#e6e6e6"/><path d="M774-128a14.48 14.48 0 0 1 4.24-10.24l17.52-17.52A2.48 2.48 0 0 1 800-154V62.8a16.57 16.57 0 0 1-3.84 10.6l-18.32 22A2.17 2.17 0 0 1 774 94z" stroke="#000" stroke-width="2" fill="#ccc"/><use xlink:href="#o" transform="matrix(1,0,0,1,268,-126) translate(0 21.52777777777778)"/><use xlink:href="#p" transform="matrix(1,0,0,1,268,-126) translate(212.21788194444446 21.52777777777778)"/><path d="M300-74a6 6 0 0 1 6-6h428a6 6 0 0 1 6 6V54a6 6 0 0 1-6 6H306a6 6 0 0 1-6-6z" stroke="#000" stroke-width="2" fill="#fff"/><path d="M317.5-44a6 6 0 0 1 6-6h393a6 6 0 0 1 6 6v68a6 6 0 0 1-6 6h-393a6 6 0 0 1-6-6z" fill="#fff"/><use xlink:href="#f" transform="matrix(1,0,0,1,317.5,-50) translate(130.91211805555557 31.84027777777778)"/><use xlink:href="#q" transform="matrix(1,0,0,1,317.5,-50) translate(137.04276041666665 64.10590277777777)"/><use xlink:href="#r" transform="matrix(1,0,0,1,317.5,-50) translate(188.3231423611111 64.10590277777777)"/><path d="M1100-64a12.8 12.8 0 0 1 4.6-9.84l98.8-82.32A16.57 16.57 0 0 1 1214-160h840a6 6 0 0 1 6 6v780a16.57 16.57 0 0 1-3.84 10.6l-82.32 98.8a12.8 12.8 0 0 1-9.84 4.6h-858a6 6 0 0 1-6-6z" stroke="#000" stroke-width="2" fill="#fff"/><path d="M1106-70a2.17 2.17 0 0 1-1.4-3.84l98.8-82.32A16.57 16.57 0 0 1 1214-160h840a2.48 2.48 0 0 1 1.76 4.24l-81.52 81.52A14.48 14.48 0 0 1 1964-70z" stroke="#000" stroke-width="2" fill="#e6e6e6"/><path d="M1970-64a14.48 14.48 0 0 1 4.24-10.24l81.52-81.52A2.48 2.48 0 0 1 2060-154v780a16.57 16.57 0 0 1-3.84 10.6l-82.32 98.8a2.17 2.17 0 0 1-3.84-1.4z" stroke="#000" stroke-width="2" fill="#ccc"/><use xlink:href="#s" transform="matrix(1,0,0,1,1108,-62) translate(0 21.52777777777778)"/><use xlink:href="#t" transform="matrix(1,0,0,1,1108,-62) translate(137.14192708333334 21.52777777777778)"/><use xlink:href="#u" transform="matrix(1,0,0,1,1108,-62) translate(195.07378472222223 21.52777777777778)"/><use xlink:href="#v" transform="matrix(1,0,0,1,1108,-62) translate(294.43359375 21.52777777777778)"/><path d="M1120 76a12.8 12.8 0 0 1 4.6-9.84l74.8-62.32A16.57 16.57 0 0 1 1210 0h675.7a6 6 0 0 1 6 6v604a16.57 16.57 0 0 1-3.84 10.6l-62.3 74.8a12.8 12.8 0 0 1-9.86 4.6H1126a6 6 0 0 1-6-6z" stroke="#000" stroke-width="2" fill="#fff"/><path d="M1126 70a2.17 2.17 0 0 1-1.4-3.84l74.8-62.32A16.57 16.57 0 0 1 1210 0h675.7a2.48 2.48 0 0 1 1.76 4.24l-61.5 61.52A14.48 14.48 0 0 1 1815.7 70z" stroke="#000" stroke-width="2" fill="#e6e6e6"/><path d="M1821.7 76a14.48 14.48 0 0 1 4.25-10.24l61.5-61.52A2.48 2.48 0 0 1 1891.7 6v604a16.57 16.57 0 0 1-3.84 10.6l-62.3 74.8a2.17 2.17 0 0 1-3.86-1.4z" stroke="#000" stroke-width="2" fill="#ccc"/><use xlink:href="#w" transform="matrix(1,0,0,1,1128,78) translate(0 21.52777777777778)"/><use xlink:href="#x" transform="matrix(1,0,0,1,1128,78) translate(82.98611111111111 21.52777777777778)"/><use xlink:href="#y" transform="matrix(1,0,0,1,1128,78) translate(205.33854166666669 21.52777777777778)"/><path d="M1140 146a6 6 0 0 1 6-6h628a6 6 0 0 1 6 6v488a6 6 0 0 1-6 6h-628a6 6 0 0 1-6-6z" stroke="#000" stroke-width="2" fill="#fff"/><path d="M1240 165.38a6 6 0 0 1 6-6h393a6 6 0 0 1 6 6v68a6 6 0 0 1-6 6h-393a6 6 0 0 1-6-6z" fill="#fff"/><use xlink:href="#f" transform="matrix(1,0,0,1,1240,159.375) translate(130.91211805555557 31.84027777777778)"/><use xlink:href="#z" transform="matrix(1,0,0,1,1240,159.375) translate(116.23112847222224 64.10590277777777)"/><use xlink:href="#A" transform="matrix(1,0,0,1,1240,159.375) translate(174.1629861111111 64.10590277777777)"/><path d="M1181.74 245.38a6 6 0 0 1 6-6h208a6 6 0 0 1 6 6v89.25a6 6 0 0 1-6 6h-208a6 6 0 0 1-6-6z" stroke="#000" stroke-width="2" fill="#fff"/><path d="M1161.74 260.7a6 6 0 0 1 6-6h28a6 6 0 0 1 6 6v8a6 6 0 0 1-6 6h-28a6 6 0 0 1-6-6zM1161.74 311.3a6 6 0 0 1 6-6h28a6 6 0 0 1 6 6v8a6 6 0 0 1-6 6h-28a6 6 0 0 1-6-6z" stroke="#000" stroke-width="2" fill="#fff"/><use xlink:href="#z" transform="matrix(1,0,0,1,1209.742589943877,249.5) translate(9.553385416666671 48.583767361111114)"/><use xlink:href="#B" transform="matrix(1,0,0,1,1209.742589943877,249.5) translate(67.48524305555556 48.583767361111114)"/><path d="M1540 245.38a6 6 0 0 1 6-6h208a6 6 0 0 1 6 6v89.25a6 6 0 0 1-6 6h-208a6 6 0 0 1-6-6z" stroke="#000" stroke-width="2" fill="#fff"/><path d="M1520 260.7a6 6 0 0 1 6-6h28a6 6 0 0 1 6 6v8a6 6 0 0 1-6 6h-28a6 6 0 0 1-6-6zM1520 311.3a6 6 0 0 1 6-6h28a6 6 0 0 1 6 6v8a6 6 0 0 1-6 6h-28a6 6 0 0 1-6-6z" stroke="#000" stroke-width="2" fill="#fff"/><use xlink:href="#l" transform="matrix(1,0,0,1,1568,249.5) translate(63.60611979166667 32.450954861111114)"/><use xlink:href="#C" transform="matrix(1,0,0,1,1568,249.5) translate(15.217447916666671 64.71657986111111)"/><path d="M1181.74 386a6 6 0 0 1 6-6h208a6 6 0 0 1 6 6v89.25a6 6 0 0 1-6 6h-208a6 6 0 0 1-6-6z" stroke="#000" stroke-width="2" fill="#fff"/><path d="M1161.74 401.3a6 6 0 0 1 6-6h28a6 6 0 0 1 6 6v8a6 6 0 0 1-6 6h-28a6 6 0 0 1-6-6zM1161.74 451.94a6 6 0 0 1 6-6h28a6 6 0 0 1 6 6v8a6 6 0 0 1-6 6h-28a6 6 0 0 1-6-6z" stroke="#000" stroke-width="2" fill="#fff"/><use xlink:href="#j" transform="matrix(1,0,0,1,1209.742589943877,390.125) translate(53.775390625 32.450954861111114)"/><use xlink:href="#C" transform="matrix(1,0,0,1,1209.742589943877,390.125) translate(15.217447916666671 64.71657986111111)"/><path d="M1540 386a6 6 0 0 1 6-6h208a6 6 0 0 1 6 6v89.25a6 6 0 0 1-6 6h-208a6 6 0 0 1-6-6z" stroke="#000" stroke-width="2" fill="#fff"/><path d="M1520 401.3a6 6 0 0 1 6-6h28a6 6 0 0 1 6 6v8a6 6 0 0 1-6 6h-28a6 6 0 0 1-6-6zM1520 451.94a6 6 0 0 1 6-6h28a6 6 0 0 1 6 6v8a6 6 0 0 1-6 6h-28a6 6 0 0 1-6-6z" stroke="#000" stroke-width="2" fill="#fff"/><use xlink:href="#D" transform="matrix(1,0,0,1,1568,390.125) translate(5.647135416666671 48.583767361111114)"/><use xlink:href="#E" transform="matrix(1,0,0,1,1568,390.125) translate(88.61154513888889 48.583767361111114)"/><path d="M1640 960.3a12.8 12.8 0 0 1 4.6-9.84l18.22-15.17a16.57 16.57 0 0 1 10.6-3.85h567.94a6 6 0 0 1 6 6v189.12a16.57 16.57 0 0 1-3.84 10.6l-15.17 18.22a12.8 12.8 0 0 1-9.84 4.6H1646a6 6 0 0 1-6-6z" stroke="#000" stroke-width="2" fill="#fff"/><path d="M1646 954.3a2.17 2.17 0 0 1-1.4-3.84l18.22-15.17a16.57 16.57 0 0 1 10.6-3.85h567.94a2.48 2.48 0 0 1 1.76 4.24l-14.37 14.36a14.48 14.48 0 0 1-10.24 4.25z" stroke="#000" stroke-width="2" fill="#e6e6e6"/><path d="M2224.5 960.3a14.48 14.48 0 0 1 4.25-10.24l14.37-14.37a2.48 2.48 0 0 1 4.24 1.75v189.12a16.57 16.57 0 0 1-3.84 10.6l-15.17 18.22a2.17 2.17 0 0 1-3.84-1.4z" stroke="#000" stroke-width="2" fill="#ccc"/><use xlink:href="#F" transform="matrix(1,0,0,1,1648,962.3046911036057) translate(0 21.52777777777778)"/><use xlink:href="#G" transform="matrix(1,0,0,1,1648,962.3046911036057) translate(121.28906250000001 21.52777777777778)"/><use xlink:href="#H" transform="matrix(1,0,0,1,1648,962.3046911036057) translate(236.39322916666669 21.52777777777778)"/><use xlink:href="#I" transform="matrix(1,0,0,1,1648,962.3046911036057) translate(288.80208333333337 21.52777777777778)"/><path d="M1720 1026a6 6 0 0 1 6-6h412.58a6 6 0 0 1 6 6v119.27a6 6 0 0 1-6 6H1726a6 6 0 0 1-6-6z" stroke="#000" stroke-width="2" fill="#fff"/><use xlink:href="#J" transform="matrix(1,0,0,1,1720,1020) translate(121.96680555555557 74.12152777777777)"/><use xlink:href="#K" transform="matrix(1,0,0,1,1720,1020) translate(203.41211805555557 74.12152777777777)"/><use xlink:href="#L" transform="matrix(1,0,0,1,1720,1020) translate(267.5505729166667 74.12152777777777)"/><path d="M975.76 960.3a12.8 12.8 0 0 1 4.6-9.84l18.22-15.17a16.57 16.57 0 0 1 10.6-3.85h592.18a6 6 0 0 1 6 6v189.12a16.57 16.57 0 0 1-3.84 10.6l-15.17 18.22a12.8 12.8 0 0 1-9.84 4.6H981.77a6 6 0 0 1-6-6z" stroke="#000" stroke-width="2" fill="#fff"/><path d="M981.76 954.3a2.17 2.17 0 0 1-1.4-3.84l18.22-15.17a16.57 16.57 0 0 1 10.6-3.85h592.18a2.48 2.48 0 0 1 1.76 4.24l-14.37 14.36a14.48 14.48 0 0 1-10.24 4.25z" stroke="#000" stroke-width="2" fill="#e6e6e6"/><path d="M1584.5 960.3a14.48 14.48 0 0 1 4.25-10.24l14.37-14.37a2.48 2.48 0 0 1 4.24 1.75v189.12a16.57 16.57 0 0 1-3.84 10.6l-15.17 18.22a2.17 2.17 0 0 1-3.84-1.4z" stroke="#000" stroke-width="2" fill="#ccc"/><use xlink:href="#F" transform="matrix(1,0,0,1,983.7639154893859,962.3046911036057) translate(0 21.52777777777778)"/><use xlink:href="#G" transform="matrix(1,0,0,1,983.7639154893859,962.3046911036057) translate(121.28906250000001 21.52777777777778)"/><use xlink:href="#M" transform="matrix(1,0,0,1,983.7639154893859,962.3046911036057) translate(236.39322916666669 21.52777777777778)"/><use xlink:href="#N" transform="matrix(1,0,0,1,983.7639154893859,962.3046911036057) translate(305.3927951388889 21.52777777777778)"/><use xlink:href="#O" transform="matrix(1,0,0,1,983.7639154893859,962.3046911036057) translate(360.01519097222223 21.52777777777778)"/><path d="M1060 1026a6 6 0 0 1 6-6h412.58a6 6 0 0 1 6 6v99.27a6 6 0 0 1-6 6H1066a6 6 0 0 1-6-6z" stroke="#000" stroke-width="2" fill="#fff"/><use xlink:href="#P" transform="matrix(1,0,0,1,1060,1020) translate(156.37435763888888 63.96527777777778)"/><use xlink:href="#Q" transform="matrix(1,0,0,1,1060,1020) translate(225.37392361111114 63.96527777777778)"/><path d="M-1280 334a12.8 12.8 0 0 1 4.6-9.84l96.4-80.32a16.57 16.57 0 0 1 10.6-3.84H-326a6 6 0 0 1 6 6v762.4a16.57 16.57 0 0 1-3.84 10.6l-80.32 96.4a12.8 12.8 0 0 1-9.84 4.6h-860a6 6 0 0 1-6-6z" stroke="#000" stroke-width="2" fill="#fff"/><path d="M-1274 328a2.17 2.17 0 0 1-1.4-3.84l96.4-80.32a16.57 16.57 0 0 1 10.6-3.84H-326a2.48 2.48 0 0 1 1.76 4.24l-79.52 79.52A14.48 14.48 0 0 1-414 328z" stroke="#000" stroke-width="2" fill="#e6e6e6"/><path d="M-408 334a14.48 14.48 0 0 1 4.24-10.24l79.52-79.52A2.48 2.48 0 0 1-320 246v762.4a16.57 16.57 0 0 1-3.84 10.6l-80.32 96.4a2.17 2.17 0 0 1-3.84-1.4z" stroke="#000" stroke-width="2" fill="#ccc"/><use xlink:href="#R" transform="matrix(1,0,0,1,-1272,336) translate(0 21.52777777777778)"/><use xlink:href="#S" transform="matrix(1,0,0,1,-1272,336) translate(135.78559027777777 21.52777777777778)"/><use xlink:href="#T" transform="matrix(1,0,0,1,-1272,336) translate(205.5447048611111 21.52777777777778)"/><path d="M-1260 456a12.8 12.8 0 0 1 4.6-9.84l74.8-62.32A16.57 16.57 0 0 1-1170 380h675.7a6 6 0 0 1 6 6v604a16.57 16.57 0 0 1-3.84 10.6l-62.3 74.8a12.8 12.8 0 0 1-9.85 4.6H-1254a6 6 0 0 1-6-6z" stroke="#000" stroke-width="2" fill="#fff"/><path d="M-1254 450a2.17 2.17 0 0 1-1.4-3.84l74.8-62.32A16.57 16.57 0 0 1-1170 380h675.7a2.48 2.48 0 0 1 1.76 4.24l-61.5 61.52A14.48 14.48 0 0 1-564.3 450z" stroke="#000" stroke-width="2" fill="#e6e6e6"/><path d="M-558.3 456a14.48 14.48 0 0 1 4.25-10.24l61.5-61.52a2.48 2.48 0 0 1 4.25 1.76v604a16.57 16.57 0 0 1-3.84 10.6l-62.3 74.8a2.17 2.17 0 0 1-3.85-1.4z" stroke="#000" stroke-width="2" fill="#ccc"/><use xlink:href="#U" transform="matrix(1,0,0,1,-1252,458) translate(0 21.52777777777778)"/><path d="M-1240 526a6 6 0 0 1 6-6h628a6 6 0 0 1 6 6v488a6 6 0 0 1-6 6h-628a6 6 0 0 1-6-6z" stroke="#000" stroke-width="2" fill="#fff"/><path d="M-1140 526a6 6 0 0 1 6-6h393a6 6 0 0 1 6 6v68a6 6 0 0 1-6 6h-393a6 6 0 0 1-6-6z" fill="#fff"/><use xlink:href="#f" transform="matrix(1,0,0,1,-1140,520) translate(130.91211805555557 31.84027777777778)"/><use xlink:href="#V" transform="matrix(1,0,0,1,-1140,520) translate(107.86524305555557 64.10590277777777)"/><use xlink:href="#W" transform="matrix(1,0,0,1,-1140,520) translate(177.6243576388889 64.10590277777777)"/><use xlink:href="#X" transform="matrix(1,0,0,1,-1140,520) translate(254.59918402777777 64.10590277777777)"/><path d="M-1198.26 606a6 6 0 0 1 6-6h208a6 6 0 0 1 6 6v89.25a6 6 0 0 1-6 6h-208a6 6 0 0 1-6-6z" stroke="#000" stroke-width="2" fill="#fff"/><path d="M-1218.26 621.3a6 6 0 0 1 6-6h28a6 6 0 0 1 6 6v8a6 6 0 0 1-6 6h-28a6 6 0 0 1-6-6zM-1218.26 671.94a6 6 0 0 1 6-6h28a6 6 0 0 1 6 6v8a6 6 0 0 1-6 6h-28a6 6 0 0 1-6-6z" stroke="#000" stroke-width="2" fill="#fff"/><use xlink:href="#Y" transform="matrix(1,0,0,1,-1170.257410056123,610.125) translate(7.942057291666686 48.583767361111114)"/><path d="M-860 606a6 6 0 0 1 6-6h208a6 6 0 0 1 6 6v89.25a6 6 0 0 1-6 6h-208a6 6 0 0 1-6-6z" stroke="#000" stroke-width="2" fill="#fff"/><path d="M-880 621.3a6 6 0 0 1 6-6h28a6 6 0 0 1 6 6v8a6 6 0 0 1-6 6h-28a6 6 0 0 1-6-6zM-880 671.94a6 6 0 0 1 6-6h28a6 6 0 0 1 6 6v8a6 6 0 0 1-6 6h-28a6 6 0 0 1-6-6z" stroke="#000" stroke-width="2" fill="#fff"/><use xlink:href="#Z" transform="matrix(1,0,0,1,-832,610.125) translate(1.9036458333333428 48.583767361111114)"/><use xlink:href="#aa" transform="matrix(1,0,0,1,-832,610.125) translate(105.64713541666667 48.583767361111114)"/><path d="M-1198.26 886a6 6 0 0 1 6-6h208a6 6 0 0 1 6 6v89.25a6 6 0 0 1-6 6h-208a6 6 0 0 1-6-6z" stroke="#000" stroke-width="2" fill="#fff"/><path d="M-1218.26 901.3a6 6 0 0 1 6-6h28a6 6 0 0 1 6 6v8a6 6 0 0 1-6 6h-28a6 6 0 0 1-6-6zM-1218.26 951.94a6 6 0 0 1 6-6h28a6 6 0 0 1 6 6v8a6 6 0 0 1-6 6h-28a6 6 0 0 1-6-6z" stroke="#000" stroke-width="2" fill="#fff"/><use xlink:href="#ab" transform="matrix(1,0,0,1,-1170.257410056123,890.125) translate(29.057508680555557 32.450954861111114)"/><use xlink:href="#ac" transform="matrix(1,0,0,1,-1170.257410056123,890.125) translate(81.23849826388889 32.450954861111114)"/><use xlink:href="#ad" transform="matrix(1,0,0,1,-1170.257410056123,890.125) translate(41.18315972222223 64.71657986111111)"/><path d="M-860 886a6 6 0 0 1 6-6h208a6 6 0 0 1 6 6v89.25a6 6 0 0 1-6 6h-208a6 6 0 0 1-6-6z" stroke="#000" stroke-width="2" fill="#fff"/><path d="M-880 901.3a6 6 0 0 1 6-6h28a6 6 0 0 1 6 6v8a6 6 0 0 1-6 6h-28a6 6 0 0 1-6-6zM-880 951.94a6 6 0 0 1 6-6h28a6 6 0 0 1 6 6v8a6 6 0 0 1-6 6h-28a6 6 0 0 1-6-6z" stroke="#000" stroke-width="2" fill="#fff"/><use xlink:href="#ae" transform="matrix(1,0,0,1,-832,890.125) translate(23.588758680555564 48.583767361111114)"/><path d="M1180 526.63a6 6 0 0 1 6-6h208a6 6 0 0 1 6 6v89.25a6 6 0 0 1-6 6h-208a6 6 0 0 1-6-6z" stroke="#000" stroke-width="2" fill="#fff"/><path d="M1160 541.94a6 6 0 0 1 6-6h28a6 6 0 0 1 6 6v8a6 6 0 0 1-6 6h-28a6 6 0 0 1-6-6zM1160 592.56a6 6 0 0 1 6-6h28a6 6 0 0 1 6 6v8a6 6 0 0 1-6 6h-28a6 6 0 0 1-6-6z" stroke="#000" stroke-width="2" fill="#fff"/><use xlink:href="#af" transform="matrix(1,0,0,1,1208,530.75) translate(27.69574652777777 32.450954861111114)"/><use xlink:href="#ag" transform="matrix(1,0,0,1,1208,530.75) translate(96.6953125 32.450954861111114)"/><use xlink:href="#ah" transform="matrix(1,0,0,1,1208,530.75) translate(34.878906250000014 64.71657986111111)"/><path d="M1540 526.63a6 6 0 0 1 6-6h208a6 6 0 0 1 6 6v89.25a6 6 0 0 1-6 6h-208a6 6 0 0 1-6-6z" stroke="#000" stroke-width="2" fill="#fff"/><path d="M1520 541.94a6 6 0 0 1 6-6h28a6 6 0 0 1 6 6v8a6 6 0 0 1-6 6h-28a6 6 0 0 1-6-6zM1520 592.56a6 6 0 0 1 6-6h28a6 6 0 0 1 6 6v8a6 6 0 0 1-6 6h-28a6 6 0 0 1-6-6z" stroke="#000" stroke-width="2" fill="#fff"/><g><use xlink:href="#ai" transform="matrix(1,0,0,1,1568,530.75) translate(7.942057291666686 48.583767361111114)"/></g><path d="M-1198.26 746a6 6 0 0 1 6-6h208a6 6 0 0 1 6 6v89.25a6 6 0 0 1-6 6h-208a6 6 0 0 1-6-6z" stroke="#000" stroke-width="2" fill="#fff"/><path d="M-1218.26 761.3a6 6 0 0 1 6-6h28a6 6 0 0 1 6 6v8a6 6 0 0 1-6 6h-28a6 6 0 0 1-6-6zM-1218.26 811.94a6 6 0 0 1 6-6h28a6 6 0 0 1 6 6v8a6 6 0 0 1-6 6h-28a6 6 0 0 1-6-6z" stroke="#000" stroke-width="2" fill="#fff"/><g><use xlink:href="#af" transform="matrix(1,0,0,1,-1170.257410056123,750.125) translate(27.69574652777777 32.450954861111114)"/><use xlink:href="#ag" transform="matrix(1,0,0,1,-1170.257410056123,750.125) translate(96.6953125 32.450954861111114)"/><use xlink:href="#aj" transform="matrix(1,0,0,1,-1170.257410056123,750.125) translate(38.047309027777786 64.71657986111111)"/></g><path d="M-860 746a6 6 0 0 1 6-6h208a6 6 0 0 1 6 6v89.25a6 6 0 0 1-6 6h-208a6 6 0 0 1-6-6z" stroke="#000" stroke-width="2" fill="#fff"/><path d="M-880 761.3a6 6 0 0 1 6-6h28a6 6 0 0 1 6 6v8a6 6 0 0 1-6 6h-28a6 6 0 0 1-6-6zM-880 811.94a6 6 0 0 1 6-6h28a6 6 0 0 1 6 6v8a6 6 0 0 1-6 6h-28a6 6 0 0 1-6-6z" stroke="#000" stroke-width="2" fill="#fff"/><g><use xlink:href="#ak" transform="matrix(1,0,0,1,-832,750.125) translate(24.879991319444443 32.450954861111114)"/><use xlink:href="#al" transform="matrix(1,0,0,1,-832,750.125) translate(59.173611111111114 64.71657986111111)"/></g><path d="M-597.5 770h635" stroke="#3a414a" stroke-width="3" fill="none"/><path d="M-597.46 771.48H-599v-2.96h1.54zM39 771.48h-1.54v-2.96H39z" stroke="#3a414a" stroke-width=".05" fill="#3a414a"/><path d="M-310 726a6 6 0 0 1 6-6h258a6 6 0 0 1 6 6v28a6 6 0 0 1-6 6h-258a6 6 0 0 1-6-6z" fill="#fff"/><g><use xlink:href="#am" transform="matrix(1,0,0,1,-310,720) translate(32.655824652777774 28.09027777777778)"/><use xlink:href="#an" transform="matrix(1,0,0,1,-310,720) translate(112.56033854166667 28.09027777777778)"/><use xlink:href="#ao" transform="matrix(1,0,0,1,-310,720) translate(165.07769965277777 28.09027777777778)"/></g><path d="M671.85 377.5v-315" stroke="#3a414a" stroke-width="3" fill="none"/><path d="M673.33 379h-2.95v-1.54h2.95zM673.33 62.54h-2.95V61h2.95z" stroke="#3a414a" stroke-width=".05" fill="#3a414a"/><path d="M682.5 770H904a6 6 0 0 0 6-6V577a6 6 0 0 1 6-6h221.5" stroke="#3a414a" stroke-width="3" fill="none"/><path d="M682.54 771.48H681v-2.96h1.54zM1139 572.48h-1.54v-2.95h1.54z" stroke="#3a414a" stroke-width=".05" fill="#3a414a"/><path d="M648.46 902.5v167.14a6 6 0 0 0 6 6h403.04" stroke="#3a414a" stroke-width="3" fill="none"/><path d="M649.93 902.54h-2.95V901h2.95zM1059 1077.1h-1.54v-2.94h1.54z" stroke="#3a414a" stroke-width=".05" fill="#3a414a"/><path d="M682.5 856.13h1243.8a6 6 0 0 1 6 6v155.37" stroke="#3a414a" stroke-width="3" fill="none"/><path d="M682.54 857.6H681v-2.94h1.54zM1933.76 1019h-2.95v-1.54h2.96z" stroke="#3a414a" stroke-width=".05" fill="#3a414a"/><path d="M503.7 1057.5v-155" stroke="#3a414a" stroke-width="3" fill="none"/><path d="M505.17 1059.03l-1.48-.03-1.5.02v-1.56h2.97zM505.17 902.54h-2.96V901h2.97z" stroke="#3a414a" stroke-width=".05" fill="#3a414a"/><path d="M360 1006a6 6 0 0 1 6-6h123a6 6 0 0 1 6 6v28a6 6 0 0 1-6 6H366a6 6 0 0 1-6-6z" fill="#fff"/><g><use xlink:href="#ap" transform="matrix(1,0,0,1,360,1000) translate(28.241762152777774 28.09027777777778)"/><use xlink:href="#ao" transform="matrix(1,0,0,1,360,1000) translate(34.491762152777774 28.09027777777778)"/></g><path d="M660 986a6 6 0 0 1 6-6h168a6 6 0 0 1 6 6v68a6 6 0 0 1-6 6H666a6 6 0 0 1-6-6z" fill="#fff"/><g><use xlink:href="#am" transform="matrix(1,0,0,1,660,980) translate(26.919062500000003 31.84027777777778)"/><use xlink:href="#aq" transform="matrix(1,0,0,1,660,980) translate(106.8235763888889 31.84027777777778)"/><use xlink:href="#ao" transform="matrix(1,0,0,1,660,980) translate(53.866762152777774 64.10590277777777)"/></g><path d="M1220 806a6 6 0 0 1 6-6h258a6 6 0 0 1 6 6v28a6 6 0 0 1-6 6h-258a6 6 0 0 1-6-6z" fill="#fff"/><g><use xlink:href="#am" transform="matrix(1,0,0,1,1220,800) translate(32.655824652777774 28.09027777777778)"/><use xlink:href="#an" transform="matrix(1,0,0,1,1220,800) translate(112.56033854166667 28.09027777777778)"/><use xlink:href="#ao" transform="matrix(1,0,0,1,1220,800) translate(165.07769965277777 28.09027777777778)"/></g><path d="M949.26 586a6 6 0 0 1 6-6h129.48a6 6 0 0 1 6 6v71.9a6 6 0 0 1-6 6H955.26a6 6 0 0 1-6-6z" fill="#fff"/><g><use xlink:href="#am" transform="matrix(1,0,0,1,949.26282600074,580) translate(7.419062500000004 33.99652777777778)"/><use xlink:href="#aq" transform="matrix(1,0,0,1,949.26282600074,580) translate(87.3235763888889 33.99652777777778)"/><use xlink:href="#ao" transform="matrix(1,0,0,1,949.26282600074,580) translate(34.366762152777774 66.26215277777777)"/></g><path d="M520 185.38a6 6 0 0 1 6-6h118a6 6 0 0 1 6 6v28a6 6 0 0 1-6 6H526a6 6 0 0 1-6-6z" fill="#fff"/><g><use xlink:href="#ar" transform="matrix(1,0,0,1,520,179.375) translate(28.866762152777774 28.09027777777778)"/></g><defs><path d="M174-520v-126l944-476v196L406-588v12l712 338v194" id="as"/><path d="M657 26c-323 0-524-166-541-416h195c15 169 171 246 346 246 202 0 356-106 356-265 5-203-294-238-475-293-239-73-380-191-380-389 0-252 224-419 512-419 294 0 499 171 508 396H992c-17-145-151-228-328-228-193 0-321 102-321 242 0 156 175 211 284 241l149 41c160 44 422 134 422 412 0 244-197 432-541 432" id="at"/><path d="M628 24c-324 0-524-230-524-574 0-343 198-582 503-582 237 0 487 146 487 559v75H286c9 234 145 362 343 362 132 0 231-58 273-172l174 48C1024-91 857 24 628 24zM287-650h624c-17-190-120-322-304-322-192 0-309 151-320 322" id="au"/><path d="M158 0v-1118h174v172h12c41-113 157-188 290-188 26 0 70 2 91 3v181c-11-2-60-10-108-10-161 0-279 109-279 260V0H158" id="av"/><path d="M481 0L54-1118h197c107 314 236 620 325 951 87-331 217-637 324-951h197L670 0H481" id="aw"/><path d="M1181-520L237-44v-194l712-338v-12L237-926v-196l944 476v126" id="ax"/><g id="a"><use transform="matrix(0.010850694444444444,0,0,0.010850694444444444,0,0)" xlink:href="#as"/><use transform="matrix(0.010850694444444444,0,0,0.010850694444444444,14.702690972222221,0)" xlink:href="#as"/><use transform="matrix(0.010850694444444444,0,0,0.010850694444444444,29.405381944444443,0)" xlink:href="#at"/><use transform="matrix(0.010850694444444444,0,0,0.010850694444444444,43.66319444444444,0)" xlink:href="#au"/><use transform="matrix(0.010850694444444444,0,0,0.010850694444444444,56.61892361111111,0)" xlink:href="#av"/><use transform="matrix(0.010850694444444444,0,0,0.010850694444444444,65.33203125,0)" xlink:href="#aw"/><use transform="matrix(0.010850694444444444,0,0,0.010850694444444444,77.38715277777779,0)" xlink:href="#au"/><use transform="matrix(0.010850694444444444,0,0,0.010850694444444444,90.34288194444446,0)" xlink:href="#av"/><use transform="matrix(0.010850694444444444,0,0,0.010850694444444444,98.70876736111113,0)" xlink:href="#ax"/><use transform="matrix(0.010850694444444444,0,0,0.010850694444444444,113.41145833333334,0)" xlink:href="#ax"/></g><path d="M180 0v-1490h190v1322h690V0H180" id="ay"/><path d="M613 24c-304 0-509-231-509-576 0-350 205-580 509-580 305 0 511 230 511 580 0 345-206 576-511 576zm0-161c226 0 329-195 329-415 0-222-103-419-329-419-223 0-326 196-326 419 0 220 103 415 326 415" id="az"/><path d="M613 24c-304 0-509-231-509-576 0-350 205-580 509-580 216 0 392 114 453 309l-173 49c-33-115-133-197-280-197-223 0-326 196-326 419 0 220 103 415 326 415 150 0 252-85 285-206l172 49C1010-95 832 24 613 24" id="aA"/><path d="M471 26C259 26 90-98 90-318c0-256 228-303 435-329 202-27 287-16 287-108 0-139-79-219-234-219-161 0-248 86-283 164l-173-57c86-203 278-265 451-265 150 0 419 46 419 395V0H815v-152h-12C765-73 660 26 471 26zm31-159c199 0 310-134 310-271v-155c-30 35-226 55-295 64-131 17-246 59-246 186 0 116 97 176 231 176" id="aB"/><path d="M338-1490V0H158v-1490h180" id="aC"/><g id="b"><use transform="matrix(0.010850694444444444,0,0,0.010850694444444444,0,0)" xlink:href="#ay"/><use transform="matrix(0.010850694444444444,0,0,0.010850694444444444,12.565104166666666,0)" xlink:href="#az"/><use transform="matrix(0.010850694444444444,0,0,0.010850694444444444,25.889756944444443,0)" xlink:href="#aA"/><use transform="matrix(0.010850694444444444,0,0,0.010850694444444444,38.80208333333333,0)" xlink:href="#aB"/><use transform="matrix(0.010850694444444444,0,0,0.010850694444444444,51.28038194444444,0)" xlink:href="#aC"/></g><path d="M52 0l541-1490h220L1361 0h-200l-149-416H398L254 0H52zm404-582h497c-103-290-145-390-251-756-108 377-145 460-246 756" id="aD"/><path d="M158 418v-1536h174v179h20c37-59 106-193 324-193 279 0 474 222 474 576 0 356-194 580-473 580-213 0-288-135-325-197h-14v591H158zm492-555c209 0 317-186 317-421 0-232-105-413-317-413-206 0-314 166-314 413 0 249 111 421 314 421" id="aE"/><path d="M158 0v-1118h180V0H158zm91-1301c-68 0-125-53-125-119s57-119 125-119c69 0 126 53 126 119s-57 119-126 119" id="aF"/><path d="M598-1118v154H368v674c0 100 37 144 132 144 23 0 62-6 92-12L629-6c-37 13-88 20-134 20-193 0-307-107-307-290v-688H20v-154h168v-266h180v266h230" id="aG"/><path d="M338-670V0H158v-1118h173l1 207c72-158 192-221 342-221 226 0 378 139 378 422V0H872v-695c0-172-96-275-252-275-161 0-282 109-282 300" id="aH"/><g id="c"><use transform="matrix(0.010850694444444444,0,0,0.010850694444444444,0,0)" xlink:href="#aD"/><use transform="matrix(0.010850694444444444,0,0,0.010850694444444444,15.33203125,0)" xlink:href="#aE"/><use transform="matrix(0.010850694444444444,0,0,0.010850694444444444,28.938802083333332,0)" xlink:href="#aE"/><use transform="matrix(0.010850694444444444,0,0,0.010850694444444444,42.545572916666664,0)" xlink:href="#aC"/><use transform="matrix(0.010850694444444444,0,0,0.010850694444444444,47.92751736111111,0)" xlink:href="#aF"/><use transform="matrix(0.010850694444444444,0,0,0.010850694444444444,53.30946180555556,0)" xlink:href="#aA"/><use transform="matrix(0.010850694444444444,0,0,0.010850694444444444,66.22178819444443,0)" xlink:href="#aB"/><use transform="matrix(0.010850694444444444,0,0,0.010850694444444444,78.70008680555554,0)" xlink:href="#aG"/><use transform="matrix(0.010850694444444444,0,0,0.010850694444444444,85.97005208333331,0)" xlink:href="#aF"/><use transform="matrix(0.010850694444444444,0,0,0.010850694444444444,91.35199652777776,0)" xlink:href="#az"/><use transform="matrix(0.010850694444444444,0,0,0.010850694444444444,104.67664930555553,0)" xlink:href="#aH"/></g><g id="d"><use transform="matrix(0.010850694444444444,0,0,0.010850694444444444,0,0)" xlink:href="#at"/><use transform="matrix(0.010850694444444444,0,0,0.010850694444444444,14.2578125,0)" xlink:href="#au"/><use transform="matrix(0.010850694444444444,0,0,0.010850694444444444,27.213541666666664,0)" xlink:href="#av"/><use transform="matrix(0.010850694444444444,0,0,0.010850694444444444,35.92664930555555,0)" xlink:href="#aw"/><use transform="matrix(0.010850694444444444,0,0,0.010850694444444444,47.98177083333333,0)" xlink:href="#au"/><use transform="matrix(0.010850694444444444,0,0,0.010850694444444444,60.937499999999986,0)" xlink:href="#av"/></g><path d="M784 20c-382 0-662-292-662-764 0-473 280-766 662-766s660 293 660 766c0 472-278 764-660 764zm0-176c266 0 475-207 475-588 0-383-209-590-475-590-268 0-477 208-477 590 0 380 209 588 477 588" id="aI"/><g id="e"><use transform="matrix(0.010850694444444444,0,0,0.010850694444444444,0,0)" xlink:href="#as"/><use transform="matrix(0.010850694444444444,0,0,0.010850694444444444,14.702690972222221,0)" xlink:href="#as"/><use transform="matrix(0.010850694444444444,0,0,0.010850694444444444,29.405381944444443,0)" xlink:href="#aI"/><use transform="matrix(0.010850694444444444,0,0,0.010850694444444444,46.39756944444444,0)" xlink:href="#at"/><use transform="matrix(0.010850694444444444,0,0,0.010850694444444444,60.65538194444444,0)" xlink:href="#ax"/><use transform="matrix(0.010850694444444444,0,0,0.010850694444444444,75.35807291666666,0)" xlink:href="#ax"/></g><path d="M678-1118v154H420V0H240v-964H20v-154h220v-149c0-194 155-293 318-293 85 0 141 18 168 30l-50 154c-19-6-47-17-97-17-111 0-159 58-159 166v109h258" id="aJ"/><g id="f"><use transform="matrix(0.010850694444444444,0,0,0.010850694444444444,0,0)" xlink:href="#as"/><use transform="matrix(0.010850694444444444,0,0,0.010850694444444444,14.702690972222221,0)" xlink:href="#as"/><use transform="matrix(0.010850694444444444,0,0,0.010850694444444444,29.405381944444443,0)" xlink:href="#aD"/><use transform="matrix(0.010850694444444444,0,0,0.010850694444444444,44.73741319444444,0)" xlink:href="#av"/><use transform="matrix(0.010850694444444444,0,0,0.010850694444444444,53.45052083333333,0)" xlink:href="#aG"/><use transform="matrix(0.010850694444444444,0,0,0.010850694444444444,60.50347222222222,0)" xlink:href="#au"/><use transform="matrix(0.010850694444444444,0,0,0.010850694444444444,73.45920138888889,0)" xlink:href="#aJ"/><use transform="matrix(0.010850694444444444,0,0,0.010850694444444444,81.33680555555554,0)" xlink:href="#aB"/><use transform="matrix(0.010850694444444444,0,0,0.010850694444444444,93.81510416666666,0)" xlink:href="#aA"/><use transform="matrix(0.010850694444444444,0,0,0.010850694444444444,106.51041666666666,0)" xlink:href="#aG"/><use transform="matrix(0.010850694444444444,0,0,0.010850694444444444,113.78038194444441,0)" xlink:href="#ax"/><use transform="matrix(0.010850694444444444,0,0,0.010850694444444444,128.48307291666666,0)" xlink:href="#ax"/></g><path d="M180 0v-1490h510c348 0 508 194 508 460 0 198-88 351-276 417L1256 0h-220L726-579c-117 2-238 0-356 1V0H180zm190-747h312c235 0 327-108 327-283 0-177-92-293-329-293H370v576" id="aK"/><path d="M537 14c-226 0-379-139-379-422v-710h180v695c0 172 97 275 253 275 160 0 281-109 281-300v-670h181V0H879v-209C806-46 684 14 537 14" id="aL"/><g id="g"><use transform="matrix(0.010850694444444444,0,0,0.010850694444444444,0,0)" xlink:href="#at"/><use transform="matrix(0.010850694444444444,0,0,0.010850694444444444,14.2578125,0)" xlink:href="#aB"/><use transform="matrix(0.010850694444444444,0,0,0.010850694444444444,26.73611111111111,0)" xlink:href="#aJ"/><use transform="matrix(0.010850694444444444,0,0,0.010850694444444444,34.30989583333333,0)" xlink:href="#au"/><use transform="matrix(0.010850694444444444,0,0,0.010850694444444444,47.265624999999986,0)" xlink:href="#aK"/><use transform="matrix(0.010850694444444444,0,0,0.010850694444444444,61.241319444444436,0)" xlink:href="#az"/><use transform="matrix(0.010850694444444444,0,0,0.010850694444444444,74.56597222222221,0)" xlink:href="#aL"/><use transform="matrix(0.010850694444444444,0,0,0.010850694444444444,87.70616319444443,0)" xlink:href="#aG"/><use transform="matrix(0.010850694444444444,0,0,0.010850694444444444,94.75911458333331,0)" xlink:href="#au"/></g><path d="M140 405l46-156c120 36 205 19 263-150l32-93L54-1118h197c107 313 237 620 324 950 87-331 219-637 326-950h196L606 167c-68 178-176 259-334 259-64 0-113-12-132-21" id="aM"/><path d="M538 24C308 24 148-78 108-271l171-41c32 123 123 178 257 178 156 0 256-77 256-169 0-77-54-128-164-154l-186-44c-203-48-300-148-300-305 0-192 176-326 414-326 230 0 351 112 402 269l-163 42c-31-80-94-158-238-158-133 0-233 69-233 162 0 83 57 129 188 160l169 40c203 48 298 149 298 302 0 196-179 339-441 339" id="aN"/><path d="M158 0v-1118h175l1 205c55-151 181-225 313-225 147 0 245 90 285 228 53-141 190-228 352-228 194 0 352 125 352 384V0h-181v-749c0-161-105-225-225-225-151 0-243 103-243 244V0H807v-767c0-124-93-207-219-207-131 0-250 92-250 270V0H158" id="aO"/><g id="h"><use transform="matrix(0.010850694444444444,0,0,0.010850694444444444,0,0)" xlink:href="#at"/><use transform="matrix(0.010850694444444444,0,0,0.010850694444444444,14.2578125,0)" xlink:href="#aM"/><use transform="matrix(0.010850694444444444,0,0,0.010850694444444444,26.74696180555556,0)" xlink:href="#aN"/><use transform="matrix(0.010850694444444444,0,0,0.010850694444444444,38.4765625,0)" xlink:href="#aG"/><use transform="matrix(0.010850694444444444,0,0,0.010850694444444444,45.5295138888889,0)" xlink:href="#au"/><use transform="matrix(0.010850694444444444,0,0,0.010850694444444444,58.48524305555555,0)" xlink:href="#aO"/></g><path d="M180 0v-1490h510c348 0 508 209 508 474 0 266-160 477-507 477H370V0H180zm190-706h312c236 0 327-133 327-310 0-176-91-307-329-307H370v617" id="aP"/><path d="M370-1490V0H180v-1490h190" id="aQ"/><g id="i"><use transform="matrix(0.010850694444444444,0,0,0.010850694444444444,0,0)" xlink:href="#aD"/><use transform="matrix(0.010850694444444444,0,0,0.010850694444444444,15.33203125,0)" xlink:href="#aP"/><use transform="matrix(0.010850694444444444,0,0,0.010850694444444444,29.524739583333332,0)" xlink:href="#aQ"/></g><g id="j"><use transform="matrix(0.010850694444444444,0,0,0.010850694444444444,0,0)" xlink:href="#aK"/><use transform="matrix(0.010850694444444444,0,0,0.010850694444444444,13.975694444444445,0)" xlink:href="#az"/><use transform="matrix(0.010850694444444444,0,0,0.010850694444444444,27.30034722222222,0)" xlink:href="#aL"/><use transform="matrix(0.010850694444444444,0,0,0.010850694444444444,40.44053819444444,0)" xlink:href="#aG"/><use transform="matrix(0.010850694444444444,0,0,0.010850694444444444,47.49348958333333,0)" xlink:href="#au"/></g><path d="M126 0v-134l627-806v-11H146v-167h839v143L376-178v11h629V0H126" id="aR"/><g id="k"><use transform="matrix(0.010850694444444444,0,0,0.010850694444444444,0,0)" xlink:href="#aI"/><use transform="matrix(0.010850694444444444,0,0,0.010850694444444444,16.9921875,0)" xlink:href="#aE"/><use transform="matrix(0.010850694444444444,0,0,0.010850694444444444,30.598958333333332,0)" xlink:href="#aG"/><use transform="matrix(0.010850694444444444,0,0,0.010850694444444444,37.86892361111111,0)" xlink:href="#aF"/><use transform="matrix(0.010850694444444444,0,0,0.010850694444444444,43.25086805555555,0)" xlink:href="#aO"/><use transform="matrix(0.010850694444444444,0,0,0.010850694444444444,62.717013888888886,0)" xlink:href="#aF"/><use transform="matrix(0.010850694444444444,0,0,0.010850694444444444,68.09895833333333,0)" xlink:href="#aR"/><use transform="matrix(0.010850694444444444,0,0,0.010850694444444444,80.37109375,0)" xlink:href="#aB"/><use transform="matrix(0.010850694444444444,0,0,0.010850694444444444,92.84939236111111,0)" xlink:href="#aG"/><use transform="matrix(0.010850694444444444,0,0,0.010850694444444444,100.11935763888889,0)" xlink:href="#aF"/><use transform="matrix(0.010850694444444444,0,0,0.010850694444444444,105.50130208333333,0)" xlink:href="#az"/><use transform="matrix(0.010850694444444444,0,0,0.010850694444444444,118.8259548611111,0)" xlink:href="#aH"/></g><path d="M98-1322v-168h1126v168H757V0H567v-1322H98" id="aS"/><g id="l"><use transform="matrix(0.010850694444444444,0,0,0.010850694444444444,0,0)" xlink:href="#aS"/><use transform="matrix(0.010850694444444444,0,0,0.010850694444444444,13.0859375,0)" xlink:href="#av"/><use transform="matrix(0.010850694444444444,0,0,0.010850694444444444,21.799045138888886,0)" xlink:href="#aF"/><use transform="matrix(0.010850694444444444,0,0,0.010850694444444444,27.18098958333333,0)" xlink:href="#aE"/></g><path d="M611 442c-248 0-391-105-460-228l146-94c47 65 117 165 314 165 178 0 307-82 307-266v-224h-17C863-141 792-18 576-18c-268 0-472-195-472-546 0-346 197-568 476-568 216 0 288 133 326 193h17v-179h175V29c0 289-215 413-487 413zm-5-620c203 0 314-146 314-390 0-237-108-403-314-403-213 0-319 180-319 403 0 230 109 390 319 390" id="aT"/><g id="m"><use transform="matrix(0.010850694444444444,0,0,0.010850694444444444,0,0)" xlink:href="#aD"/><use transform="matrix(0.010850694444444444,0,0,0.010850694444444444,15.33203125,0)" xlink:href="#aN"/><use transform="matrix(0.010850694444444444,0,0,0.010850694444444444,27.061631944444443,0)" xlink:href="#aN"/><use transform="matrix(0.010850694444444444,0,0,0.010850694444444444,38.791232638888886,0)" xlink:href="#aF"/><use transform="matrix(0.010850694444444444,0,0,0.010850694444444444,44.17317708333333,0)" xlink:href="#aT"/><use transform="matrix(0.010850694444444444,0,0,0.010850694444444444,57.80164930555555,0)" xlink:href="#aH"/><use transform="matrix(0.010850694444444444,0,0,0.010850694444444444,70.93098958333333,0)" xlink:href="#aO"/><use transform="matrix(0.010850694444444444,0,0,0.010850694444444444,90.39713541666666,0)" xlink:href="#au"/><use transform="matrix(0.010850694444444444,0,0,0.010850694444444444,103.35286458333333,0)" xlink:href="#aH"/><use transform="matrix(0.010850694444444444,0,0,0.010850694444444444,116.4822048611111,0)" xlink:href="#aG"/></g><path d="M645 0H180v-1490h484c435 0 692 280 692 742 0 466-257 748-711 748zM370-168h263c363 0 539-218 539-580 0-358-176-574-521-574H370v1154" id="aU"/><path d="M677 24c-213 0-288-135-325-197h-20V0H158v-1490h180v551h14c37-59 106-193 324-193 279 0 474 222 474 576 0 356-194 580-473 580zm-27-161c209 0 317-186 317-421 0-232-105-413-317-413-206 0-314 166-314 413 0 249 111 421 314 421" id="aV"/><g id="n"><use transform="matrix(0.010850694444444444,0,0,0.010850694444444444,0,0)" xlink:href="#aU"/><use transform="matrix(0.010850694444444444,0,0,0.010850694444444444,16.03732638888889,0)" xlink:href="#aB"/><use transform="matrix(0.010850694444444444,0,0,0.010850694444444444,28.515625,0)" xlink:href="#aG"/><use transform="matrix(0.010850694444444444,0,0,0.010850694444444444,35.89409722222222,0)" xlink:href="#aB"/><use transform="matrix(0.010850694444444444,0,0,0.010850694444444444,48.37239583333333,0)" xlink:href="#aV"/><use transform="matrix(0.010850694444444444,0,0,0.010850694444444444,62.19618055555554,0)" xlink:href="#aB"/><use transform="matrix(0.010850694444444444,0,0,0.010850694444444444,74.67447916666666,0)" xlink:href="#aN"/><use transform="matrix(0.010850694444444444,0,0,0.010850694444444444,86.4040798611111,0)" xlink:href="#au"/></g><path d="M600 0L52-1490h200c166 485 304 806 458 1336 156-533 285-846 449-1336h202L819 0H600" id="aW"/><path d="M338-670V0H158v-1490h180v566c73-149 190-208 336-208 226 0 379 139 379 422V0H872v-695c0-172-96-275-252-275-161 0-282 109-282 300" id="aX"/><g id="o"><use transform="matrix(0.010850694444444444,0,0,0.010850694444444444,0,0)" xlink:href="#as"/><use transform="matrix(0.010850694444444444,0,0,0.010850694444444444,14.702690972222221,0)" xlink:href="#as"/><use transform="matrix(0.010850694444444444,0,0,0.010850694444444444,29.405381944444443,0)" xlink:href="#aU"/><use transform="matrix(0.010850694444444444,0,0,0.010850694444444444,45.44270833333333,0)" xlink:href="#au"/><use transform="matrix(0.010850694444444444,0,0,0.010850694444444444,57.96440972222221,0)" xlink:href="#aw"/><use transform="matrix(0.010850694444444444,0,0,0.010850694444444444,70.45355902777777,0)" xlink:href="#aF"/><use transform="matrix(0.010850694444444444,0,0,0.010850694444444444,75.83550347222221,0)" xlink:href="#aA"/><use transform="matrix(0.010850694444444444,0,0,0.010850694444444444,88.53081597222221,0)" xlink:href="#au"/><use transform="matrix(0.010850694444444444,0,0,0.010850694444444444,101.48654513888889,0)" xlink:href="#ax"/><use transform="matrix(0.010850694444444444,0,0,0.010850694444444444,116.1892361111111,0)" xlink:href="#ax"/><use transform="matrix(0.010850694444444444,0,0,0.010850694444444444,129.25347222222223,0)" xlink:href="#aW"/><use transform="matrix(0.010850694444444444,0,0,0.010850694444444444,143.45703125,0)" xlink:href="#au"/><use transform="matrix(0.010850694444444444,0,0,0.010850694444444444,156.41276041666666,0)" xlink:href="#aX"/><use transform="matrix(0.010850694444444444,0,0,0.010850694444444444,169.55295138888889,0)" xlink:href="#aF"/><use transform="matrix(0.010850694444444444,0,0,0.010850694444444444,174.93489583333334,0)" xlink:href="#aA"/><use transform="matrix(0.010850694444444444,0,0,0.010850694444444444,187.63020833333331,0)" xlink:href="#aC"/><use transform="matrix(0.010850694444444444,0,0,0.010850694444444444,193.0121527777778,0)" xlink:href="#au"/></g><path d="M180 0v-1490h190v644h782v-644h190V0h-190v-678H370V0H180" id="aY"/><path d="M577 24c-279 0-473-224-473-580 0-354 195-576 474-576 218 0 287 134 324 193h14v-551h180V0H922v-173h-20C865-111 790 24 577 24zm27-161c203 0 314-172 314-421 0-247-108-413-314-413-212 0-317 181-317 413 0 235 108 421 317 421" id="aZ"/><path d="M409 0L70-1118h191c89 329 165 560 243 925 75-353 154-601 240-925h192c85 325 161 564 235 922 77-354 157-598 244-922h191L1267 0h-179c-86-307-176-590-250-913C763-588 675-308 588 0H409" id="ba"/><g id="p"><use transform="matrix(0.010850694444444444,0,0,0.010850694444444444,0,0)" xlink:href="#aY"/><use transform="matrix(0.010850694444444444,0,0,0.010850694444444444,16.514756944444443,0)" xlink:href="#aB"/><use transform="matrix(0.010850694444444444,0,0,0.010850694444444444,28.993055555555554,0)" xlink:href="#av"/><use transform="matrix(0.010850694444444444,0,0,0.010850694444444444,36.99001736111111,0)" xlink:href="#aZ"/><use transform="matrix(0.010850694444444444,0,0,0.010850694444444444,50.59678819444444,0)" xlink:href="#ba"/><use transform="matrix(0.010850694444444444,0,0,0.010850694444444444,68.78255208333333,0)" xlink:href="#aB"/><use transform="matrix(0.010850694444444444,0,0,0.010850694444444444,81.26085069444444,0)" xlink:href="#av"/><use transform="matrix(0.010850694444444444,0,0,0.010850694444444444,89.2578125,0)" xlink:href="#au"/></g><path d="M789 20c-398 0-667-293-667-764 0-473 273-766 655-766 315 0 558 198 612 487h-196c-61-191-204-311-415-311-262 0-471 207-471 590 0 380 208 588 482 588 249 0 420-165 425-427H828v-166h572v163c0 370-256 606-611 606" id="bb"/><g id="q"><use transform="matrix(0.010850694444444444,0,0,0.010850694444444444,0,0)" xlink:href="#bb"/><use transform="matrix(0.010850694444444444,0,0,0.010850694444444444,16.57986111111111,0)" xlink:href="#aP"/><use transform="matrix(0.010850694444444444,0,0,0.010850694444444444,30.772569444444443,0)" xlink:href="#at"/></g><path d="M158 0v-1490h180v865h22l478-493h223L593-638 1096 0H865L456-523 338-412V0H158" id="bc"/><g id="r"><use transform="matrix(0.010850694444444444,0,0,0.010850694444444444,0,0)" xlink:href="#aS"/><use transform="matrix(0.010850694444444444,0,0,0.010850694444444444,13.0859375,0)" xlink:href="#av"/><use transform="matrix(0.010850694444444444,0,0,0.010850694444444444,21.451822916666664,0)" xlink:href="#aB"/><use transform="matrix(0.010850694444444444,0,0,0.010850694444444444,33.93012152777777,0)" xlink:href="#aA"/><use transform="matrix(0.010850694444444444,0,0,0.010850694444444444,46.62543402777778,0)" xlink:href="#bc"/><use transform="matrix(0.010850694444444444,0,0,0.010850694444444444,58.322482638888886,0)" xlink:href="#au"/><use transform="matrix(0.010850694444444444,0,0,0.010850694444444444,71.27821180555556,0)" xlink:href="#av"/></g><g id="s"><use transform="matrix(0.010850694444444444,0,0,0.010850694444444444,0,0)" xlink:href="#as"/><use transform="matrix(0.010850694444444444,0,0,0.010850694444444444,14.702690972222221,0)" xlink:href="#as"/><use transform="matrix(0.010850694444444444,0,0,0.010850694444444444,29.405381944444443,0)" xlink:href="#aU"/><use transform="matrix(0.010850694444444444,0,0,0.010850694444444444,45.44270833333333,0)" xlink:href="#au"/><use transform="matrix(0.010850694444444444,0,0,0.010850694444444444,57.96440972222221,0)" xlink:href="#aw"/><use transform="matrix(0.010850694444444444,0,0,0.010850694444444444,70.45355902777777,0)" xlink:href="#aF"/><use transform="matrix(0.010850694444444444,0,0,0.010850694444444444,75.83550347222221,0)" xlink:href="#aA"/><use transform="matrix(0.010850694444444444,0,0,0.010850694444444444,88.53081597222221,0)" xlink:href="#au"/><use transform="matrix(0.010850694444444444,0,0,0.010850694444444444,101.48654513888889,0)" xlink:href="#ax"/><use transform="matrix(0.010850694444444444,0,0,0.010850694444444444,116.1892361111111,0)" xlink:href="#ax"/></g><path d="M180 0v-1490h901v168H370v510h643v168H370V0H180" id="bd"/><g id="t"><use transform="matrix(0.010850694444444444,0,0,0.010850694444444444,0,0)" xlink:href="#bd"/><use transform="matrix(0.010850694444444444,0,0,0.010850694444444444,13.118489583333332,0)" xlink:href="#aC"/><use transform="matrix(0.010850694444444444,0,0,0.010850694444444444,18.50043402777778,0)" xlink:href="#au"/><use transform="matrix(0.010850694444444444,0,0,0.010850694444444444,31.456163194444443,0)" xlink:href="#au"/><use transform="matrix(0.010850694444444444,0,0,0.010850694444444444,44.41189236111111,0)" xlink:href="#aG"/></g><path d="M180 0v-1490h270l367 940c28 72 75 218 110 339 35-117 81-264 110-339l362-940h271V0h-187c2-448-5-837 7-1287-157 497-311 829-483 1287H842C666-458 514-784 354-1284c12 438 5 843 7 1284H180" id="be"/><g id="u"><use transform="matrix(0.010850694444444444,0,0,0.010850694444444444,0,0)" xlink:href="#be"/><use transform="matrix(0.010850694444444444,0,0,0.010850694444444444,20.07378472222222,0)" xlink:href="#aB"/><use transform="matrix(0.010850694444444444,0,0,0.010850694444444444,32.55208333333333,0)" xlink:href="#aH"/><use transform="matrix(0.010850694444444444,0,0,0.010850694444444444,45.68142361111111,0)" xlink:href="#aB"/><use transform="matrix(0.010850694444444444,0,0,0.010850694444444444,58.15972222222221,0)" xlink:href="#aT"/><use transform="matrix(0.010850694444444444,0,0,0.010850694444444444,71.78819444444443,0)" xlink:href="#au"/><use transform="matrix(0.010850694444444444,0,0,0.010850694444444444,84.7439236111111,0)" xlink:href="#av"/></g><path d="M783 20c-382 0-661-292-661-764 0-473 279-766 661-766 302 0 548 182 601 489h-190c-42-204-217-313-411-313-268 0-476 208-476 590 0 381 209 588 476 588 195 0 369-110 411-313h190c-52 303-296 489-601 489" id="bf"/><g id="v"><use transform="matrix(0.010850694444444444,0,0,0.010850694444444444,0,0)" xlink:href="#bf"/><use transform="matrix(0.010850694444444444,0,0,0.010850694444444444,16.23263888888889,0)" xlink:href="#az"/><use transform="matrix(0.010850694444444444,0,0,0.010850694444444444,29.557291666666664,0)" xlink:href="#aO"/><use transform="matrix(0.010850694444444444,0,0,0.010850694444444444,49.0234375,0)" xlink:href="#aE"/><use transform="matrix(0.010850694444444444,0,0,0.010850694444444444,62.63020833333333,0)" xlink:href="#aL"/><use transform="matrix(0.010850694444444444,0,0,0.010850694444444444,75.77039930555554,0)" xlink:href="#aG"/><use transform="matrix(0.010850694444444444,0,0,0.010850694444444444,82.82335069444443,0)" xlink:href="#au"/><use transform="matrix(0.010850694444444444,0,0,0.010850694444444444,95.77907986111111,0)" xlink:href="#av"/></g><path d="M458 0L52-1490h194c108 439 233 855 324 1313 92-459 221-873 331-1313h216c110 438 234 854 330 1307 92-455 216-869 323-1307h196L1558 0h-221l-256-944c-26-95-50-200-73-331-22 122-44 223-73 331L680 0H458" id="bg"/><g id="w"><use transform="matrix(0.010850694444444444,0,0,0.010850694444444444,0,0)" xlink:href="#as"/><use transform="matrix(0.010850694444444444,0,0,0.010850694444444444,14.702690972222221,0)" xlink:href="#as"/><use transform="matrix(0.010850694444444444,0,0,0.010850694444444444,29.405381944444443,0)" xlink:href="#bg"/><use transform="matrix(0.010850694444444444,0,0,0.010850694444444444,50.17361111111112,0)" xlink:href="#au"/><use transform="matrix(0.010850694444444444,0,0,0.010850694444444444,63.12934027777778,0)" xlink:href="#aV"/></g><path d="M180 0v-1490h528c311 0 458 177 458 395 0 191-114 278-244 313v14c139 9 302 137 302 371 0 225-148 397-499 397H180zm190-168h350c232 0 321-102 321-231 0-149-120-277-311-277H370v508zm0-668h328c160 0 286-101 286-255 0-129-87-231-280-231H370v486" id="bh"/><g id="x"><use transform="matrix(0.010850694444444444,0,0,0.010850694444444444,0,0)" xlink:href="#bh"/><use transform="matrix(0.010850694444444444,0,0,0.010850694444444444,14.539930555555555,0)" xlink:href="#av"/><use transform="matrix(0.010850694444444444,0,0,0.010850694444444444,22.53689236111111,0)" xlink:href="#az"/><use transform="matrix(0.010850694444444444,0,0,0.010850694444444444,35.46006944444444,0)" xlink:href="#ba"/><use transform="matrix(0.010850694444444444,0,0,0.010850694444444444,53.64583333333333,0)" xlink:href="#aN"/><use transform="matrix(0.010850694444444444,0,0,0.010850694444444444,65.37543402777777,0)" xlink:href="#au"/><use transform="matrix(0.010850694444444444,0,0,0.010850694444444444,78.33116319444444,0)" xlink:href="#av"/><use transform="matrix(0.010850694444444444,0,0,0.010850694444444444,86.69704861111111,0)" xlink:href="#ax"/><use transform="matrix(0.010850694444444444,0,0,0.010850694444444444,101.39973958333334,0)" xlink:href="#ax"/></g><g id="y"><use transform="matrix(0.010850694444444444,0,0,0.010850694444444444,0,0)" xlink:href="#bh"/><use transform="matrix(0.010850694444444444,0,0,0.010850694444444444,14.539930555555555,0)" xlink:href="#av"/><use transform="matrix(0.010850694444444444,0,0,0.010850694444444444,22.53689236111111,0)" xlink:href="#az"/><use transform="matrix(0.010850694444444444,0,0,0.010850694444444444,35.46006944444444,0)" xlink:href="#ba"/><use transform="matrix(0.010850694444444444,0,0,0.010850694444444444,53.64583333333333,0)" xlink:href="#aN"/><use transform="matrix(0.010850694444444444,0,0,0.010850694444444444,65.37543402777777,0)" xlink:href="#au"/><use transform="matrix(0.010850694444444444,0,0,0.010850694444444444,78.33116319444444,0)" xlink:href="#av"/></g><g id="z"><use transform="matrix(0.010850694444444444,0,0,0.010850694444444444,0,0)" xlink:href="#bd"/><use transform="matrix(0.010850694444444444,0,0,0.010850694444444444,13.118489583333332,0)" xlink:href="#aC"/><use transform="matrix(0.010850694444444444,0,0,0.010850694444444444,18.50043402777778,0)" xlink:href="#au"/><use transform="matrix(0.010850694444444444,0,0,0.010850694444444444,31.456163194444443,0)" xlink:href="#au"/><use transform="matrix(0.010850694444444444,0,0,0.010850694444444444,44.41189236111111,0)" xlink:href="#aG"/></g><g id="A"><use transform="matrix(0.010850694444444444,0,0,0.010850694444444444,0,0)" xlink:href="#aU"/><use transform="matrix(0.010850694444444444,0,0,0.010850694444444444,16.03732638888889,0)" xlink:href="#aB"/><use transform="matrix(0.010850694444444444,0,0,0.010850694444444444,28.515625,0)" xlink:href="#aN"/><use transform="matrix(0.010850694444444444,0,0,0.010850694444444444,40.24522569444444,0)" xlink:href="#aX"/><use transform="matrix(0.010850694444444444,0,0,0.010850694444444444,53.385416666666664,0)" xlink:href="#aV"/><use transform="matrix(0.010850694444444444,0,0,0.010850694444444444,66.9921875,0)" xlink:href="#az"/><use transform="matrix(0.010850694444444444,0,0,0.010850694444444444,80.53385416666666,0)" xlink:href="#aB"/><use transform="matrix(0.010850694444444444,0,0,0.010850694444444444,93.01215277777777,0)" xlink:href="#av"/><use transform="matrix(0.010850694444444444,0,0,0.010850694444444444,101.00911458333333,0)" xlink:href="#aZ"/></g><g id="B"><use transform="matrix(0.010850694444444444,0,0,0.010850694444444444,0,0)" xlink:href="#aS"/><use transform="matrix(0.010850694444444444,0,0,0.010850694444444444,13.0859375,0)" xlink:href="#av"/><use transform="matrix(0.010850694444444444,0,0,0.010850694444444444,21.451822916666664,0)" xlink:href="#aB"/><use transform="matrix(0.010850694444444444,0,0,0.010850694444444444,33.93012152777777,0)" xlink:href="#aA"/><use transform="matrix(0.010850694444444444,0,0,0.010850694444444444,46.62543402777778,0)" xlink:href="#bc"/><use transform="matrix(0.010850694444444444,0,0,0.010850694444444444,58.82161458333333,0)" xlink:href="#aF"/><use transform="matrix(0.010850694444444444,0,0,0.010850694444444444,64.20355902777777,0)" xlink:href="#aH"/><use transform="matrix(0.010850694444444444,0,0,0.010850694444444444,77.33289930555554,0)" xlink:href="#aT"/></g><g id="C"><use transform="matrix(0.010850694444444444,0,0,0.010850694444444444,0,0)" xlink:href="#be"/><use transform="matrix(0.010850694444444444,0,0,0.010850694444444444,20.07378472222222,0)" xlink:href="#aB"/><use transform="matrix(0.010850694444444444,0,0,0.010850694444444444,32.55208333333333,0)" xlink:href="#aH"/><use transform="matrix(0.010850694444444444,0,0,0.010850694444444444,45.68142361111111,0)" xlink:href="#aB"/><use transform="matrix(0.010850694444444444,0,0,0.010850694444444444,58.15972222222221,0)" xlink:href="#aT"/><use transform="matrix(0.010850694444444444,0,0,0.010850694444444444,71.78819444444443,0)" xlink:href="#au"/><use transform="matrix(0.010850694444444444,0,0,0.010850694444444444,84.7439236111111,0)" xlink:href="#aO"/><use transform="matrix(0.010850694444444444,0,0,0.010850694444444444,104.21006944444441,0)" xlink:href="#au"/><use transform="matrix(0.010850694444444444,0,0,0.010850694444444444,117.1657986111111,0)" xlink:href="#aH"/><use transform="matrix(0.010850694444444444,0,0,0.010850694444444444,130.29513888888889,0)" xlink:href="#aG"/></g><g id="D"><use transform="matrix(0.010850694444444444,0,0,0.010850694444444444,0,0)" xlink:href="#aW"/><use transform="matrix(0.010850694444444444,0,0,0.010850694444444444,14.20355902777778,0)" xlink:href="#au"/><use transform="matrix(0.010850694444444444,0,0,0.010850694444444444,27.159288194444443,0)" xlink:href="#aX"/><use transform="matrix(0.010850694444444444,0,0,0.010850694444444444,40.299479166666664,0)" xlink:href="#aF"/><use transform="matrix(0.010850694444444444,0,0,0.010850694444444444,45.68142361111111,0)" xlink:href="#aA"/><use transform="matrix(0.010850694444444444,0,0,0.010850694444444444,58.37673611111111,0)" xlink:href="#aC"/><use transform="matrix(0.010850694444444444,0,0,0.010850694444444444,63.75868055555555,0)" xlink:href="#au"/></g><g id="E"><use transform="matrix(0.010850694444444444,0,0,0.010850694444444444,0,0)" xlink:href="#at"/><use transform="matrix(0.010850694444444444,0,0,0.010850694444444444,14.2578125,0)" xlink:href="#au"/><use transform="matrix(0.010850694444444444,0,0,0.010850694444444444,27.43055555555556,0)" xlink:href="#aB"/><use transform="matrix(0.010850694444444444,0,0,0.010850694444444444,39.90885416666667,0)" xlink:href="#av"/><use transform="matrix(0.010850694444444444,0,0,0.010850694444444444,47.90581597222222,0)" xlink:href="#aA"/><use transform="matrix(0.010850694444444444,0,0,0.010850694444444444,60.60112847222222,0)" xlink:href="#aX"/></g><path d="M180 0v-1490h908v168H370v486h669v168H370v500h727V0H180" id="bi"/><path d="M65 0l393-574-370-544h210c88 136 192 297 267 435 67-142 176-302 264-435h206L661-564 1053 0H844c-94-144-206-310-287-458C484-308 366-142 273 0H65" id="bj"/><g id="F"><use transform="matrix(0.010850694444444444,0,0,0.010850694444444444,0,0)" xlink:href="#as"/><use transform="matrix(0.010850694444444444,0,0,0.010850694444444444,14.702690972222221,0)" xlink:href="#as"/><use transform="matrix(0.010850694444444444,0,0,0.010850694444444444,29.405381944444443,0)" xlink:href="#bi"/><use transform="matrix(0.010850694444444444,0,0,0.010850694444444444,42.76258680555556,0)" xlink:href="#bj"/><use transform="matrix(0.010850694444444444,0,0,0.010850694444444444,55.32769097222223,0)" xlink:href="#aG"/><use transform="matrix(0.010850694444444444,0,0,0.010850694444444444,62.38064236111112,0)" xlink:href="#au"/><use transform="matrix(0.010850694444444444,0,0,0.010850694444444444,75.33637152777779,0)" xlink:href="#av"/><use transform="matrix(0.010850694444444444,0,0,0.010850694444444444,84.04947916666669,0)" xlink:href="#aH"/><use transform="matrix(0.010850694444444444,0,0,0.010850694444444444,97.17881944444446,0)" xlink:href="#aB"/><use transform="matrix(0.010850694444444444,0,0,0.010850694444444444,109.65711805555557,0)" xlink:href="#aC"/></g><g id="G"><use transform="matrix(0.010850694444444444,0,0,0.010850694444444444,0,0)" xlink:href="#at"/><use transform="matrix(0.010850694444444444,0,0,0.010850694444444444,14.2578125,0)" xlink:href="#au"/><use transform="matrix(0.010850694444444444,0,0,0.010850694444444444,27.213541666666664,0)" xlink:href="#av"/><use transform="matrix(0.010850694444444444,0,0,0.010850694444444444,35.92664930555555,0)" xlink:href="#aw"/><use transform="matrix(0.010850694444444444,0,0,0.010850694444444444,48.41579861111111,0)" xlink:href="#aF"/><use transform="matrix(0.010850694444444444,0,0,0.010850694444444444,53.79774305555556,0)" xlink:href="#aA"/><use transform="matrix(0.010850694444444444,0,0,0.010850694444444444,66.49305555555554,0)" xlink:href="#au"/><use transform="matrix(0.010850694444444444,0,0,0.010850694444444444,79.44878472222221,0)" xlink:href="#ax"/><use transform="matrix(0.010850694444444444,0,0,0.010850694444444444,94.15147569444441,0)" xlink:href="#ax"/></g><g id="H"><use transform="matrix(0.010850694444444444,0,0,0.010850694444444444,0,0)" xlink:href="#be"/><use transform="matrix(0.010850694444444444,0,0,0.010850694444444444,20.07378472222222,0)" xlink:href="#aB"/><use transform="matrix(0.010850694444444444,0,0,0.010850694444444444,32.55208333333333,0)" xlink:href="#aE"/></g><g id="I"><use transform="matrix(0.010850694444444444,0,0,0.010850694444444444,0,0)" xlink:href="#at"/><use transform="matrix(0.010850694444444444,0,0,0.010850694444444444,14.2578125,0)" xlink:href="#au"/><use transform="matrix(0.010850694444444444,0,0,0.010850694444444444,27.213541666666664,0)" xlink:href="#av"/><use transform="matrix(0.010850694444444444,0,0,0.010850694444444444,35.92664930555555,0)" xlink:href="#aw"/><use transform="matrix(0.010850694444444444,0,0,0.010850694444444444,48.41579861111111,0)" xlink:href="#aF"/><use transform="matrix(0.010850694444444444,0,0,0.010850694444444444,53.79774305555556,0)" xlink:href="#aA"/><use transform="matrix(0.010850694444444444,0,0,0.010850694444444444,66.49305555555554,0)" xlink:href="#au"/></g><g id="J"><use transform="matrix(0.010850694444444444,0,0,0.010850694444444444,0,0)" xlink:href="#bb"/><use transform="matrix(0.010850694444444444,0,0,0.010850694444444444,16.57986111111111,0)" xlink:href="#az"/><use transform="matrix(0.010850694444444444,0,0,0.010850694444444444,29.90451388888889,0)" xlink:href="#az"/><use transform="matrix(0.010850694444444444,0,0,0.010850694444444444,43.229166666666664,0)" xlink:href="#aT"/><use transform="matrix(0.010850694444444444,0,0,0.010850694444444444,56.857638888888886,0)" xlink:href="#aC"/><use transform="matrix(0.010850694444444444,0,0,0.010850694444444444,62.23958333333333,0)" xlink:href="#au"/></g><g id="K"><use transform="matrix(0.010850694444444444,0,0,0.010850694444444444,0,0)" xlink:href="#be"/><use transform="matrix(0.010850694444444444,0,0,0.010850694444444444,20.07378472222222,0)" xlink:href="#aB"/><use transform="matrix(0.010850694444444444,0,0,0.010850694444444444,32.55208333333333,0)" xlink:href="#aE"/><use transform="matrix(0.010850694444444444,0,0,0.010850694444444444,46.15885416666666,0)" xlink:href="#aN"/></g><g id="L"><use transform="matrix(0.010850694444444444,0,0,0.010850694444444444,0,0)" xlink:href="#aD"/><use transform="matrix(0.010850694444444444,0,0,0.010850694444444444,15.33203125,0)" xlink:href="#aP"/><use transform="matrix(0.010850694444444444,0,0,0.010850694444444444,29.524739583333332,0)" xlink:href="#aQ"/></g><g id="M"><use transform="matrix(0.010850694444444444,0,0,0.010850694444444444,0,0)" xlink:href="#bf"/><use transform="matrix(0.010850694444444444,0,0,0.010850694444444444,16.23263888888889,0)" xlink:href="#av"/><use transform="matrix(0.010850694444444444,0,0,0.010850694444444444,24.94574652777778,0)" xlink:href="#aF"/><use transform="matrix(0.010850694444444444,0,0,0.010850694444444444,30.32769097222222,0)" xlink:href="#aO"/><use transform="matrix(0.010850694444444444,0,0,0.010850694444444444,49.79383680555556,0)" xlink:href="#au"/></g><g id="N"><use transform="matrix(0.010850694444444444,0,0,0.010850694444444444,0,0)" xlink:href="#aU"/><use transform="matrix(0.010850694444444444,0,0,0.010850694444444444,16.03732638888889,0)" xlink:href="#aB"/><use transform="matrix(0.010850694444444444,0,0,0.010850694444444444,28.515625,0)" xlink:href="#aG"/><use transform="matrix(0.010850694444444444,0,0,0.010850694444444444,35.89409722222222,0)" xlink:href="#aB"/></g><g id="O"><use transform="matrix(0.010850694444444444,0,0,0.010850694444444444,0,0)" xlink:href="#at"/><use transform="matrix(0.010850694444444444,0,0,0.010850694444444444,14.2578125,0)" xlink:href="#az"/><use transform="matrix(0.010850694444444444,0,0,0.010850694444444444,27.58246527777778,0)" xlink:href="#aL"/><use transform="matrix(0.010850694444444444,0,0,0.010850694444444444,40.72265625,0)" xlink:href="#av"/><use transform="matrix(0.010850694444444444,0,0,0.010850694444444444,48.71961805555556,0)" xlink:href="#aA"/><use transform="matrix(0.010850694444444444,0,0,0.010850694444444444,61.41493055555555,0)" xlink:href="#au"/></g><g id="P"><use transform="matrix(0.010850694444444444,0,0,0.010850694444444444,0,0)" xlink:href="#bf"/><use transform="matrix(0.010850694444444444,0,0,0.010850694444444444,16.23263888888889,0)" xlink:href="#av"/><use transform="matrix(0.010850694444444444,0,0,0.010850694444444444,24.94574652777778,0)" xlink:href="#aF"/><use transform="matrix(0.010850694444444444,0,0,0.010850694444444444,30.32769097222222,0)" xlink:href="#aO"/><use transform="matrix(0.010850694444444444,0,0,0.010850694444444444,49.79383680555556,0)" xlink:href="#au"/></g><g id="Q"><use transform="matrix(0.010850694444444444,0,0,0.010850694444444444,0,0)" xlink:href="#aY"/><use transform="matrix(0.010850694444444444,0,0,0.010850694444444444,16.514756944444443,0)" xlink:href="#aL"/><use transform="matrix(0.010850694444444444,0,0,0.010850694444444444,29.654947916666664,0)" xlink:href="#aV"/></g><g id="R"><use transform="matrix(0.010850694444444444,0,0,0.010850694444444444,0,0)" xlink:href="#as"/><use transform="matrix(0.010850694444444444,0,0,0.010850694444444444,14.702690972222221,0)" xlink:href="#as"/><use transform="matrix(0.010850694444444444,0,0,0.010850694444444444,29.405381944444443,0)" xlink:href="#be"/><use transform="matrix(0.010850694444444444,0,0,0.010850694444444444,49.479166666666664,0)" xlink:href="#az"/><use transform="matrix(0.010850694444444444,0,0,0.010850694444444444,62.80381944444444,0)" xlink:href="#aV"/><use transform="matrix(0.010850694444444444,0,0,0.010850694444444444,76.41059027777777,0)" xlink:href="#aF"/><use transform="matrix(0.010850694444444444,0,0,0.010850694444444444,81.79253472222221,0)" xlink:href="#aC"/><use transform="matrix(0.010850694444444444,0,0,0.010850694444444444,87.17447916666666,0)" xlink:href="#au"/><use transform="matrix(0.010850694444444444,0,0,0.010850694444444444,100.13020833333333,0)" xlink:href="#ax"/><use transform="matrix(0.010850694444444444,0,0,0.010850694444444444,114.83289930555556,0)" xlink:href="#ax"/></g><g id="S"><use transform="matrix(0.010850694444444444,0,0,0.010850694444444444,0,0)" xlink:href="#aU"/><use transform="matrix(0.010850694444444444,0,0,0.010850694444444444,16.03732638888889,0)" xlink:href="#av"/><use transform="matrix(0.010850694444444444,0,0,0.010850694444444444,24.75043402777778,0)" xlink:href="#aF"/><use transform="matrix(0.010850694444444444,0,0,0.010850694444444444,30.13237847222222,0)" xlink:href="#aw"/><use transform="matrix(0.010850694444444444,0,0,0.010850694444444444,42.1875,0)" xlink:href="#au"/><use transform="matrix(0.010850694444444444,0,0,0.010850694444444444,55.143229166666664,0)" xlink:href="#av"/></g><g id="T"><use transform="matrix(0.010850694444444444,0,0,0.010850694444444444,0,0)" xlink:href="#at"/><use transform="matrix(0.010850694444444444,0,0,0.010850694444444444,14.2578125,0)" xlink:href="#aO"/><use transform="matrix(0.010850694444444444,0,0,0.010850694444444444,33.72395833333333,0)" xlink:href="#aB"/><use transform="matrix(0.010850694444444444,0,0,0.010850694444444444,46.20225694444444,0)" xlink:href="#av"/><use transform="matrix(0.010850694444444444,0,0,0.010850694444444444,54.91536458333333,0)" xlink:href="#aG"/><use transform="matrix(0.010850694444444444,0,0,0.010850694444444444,62.18532986111111,0)" xlink:href="#aP"/><use transform="matrix(0.010850694444444444,0,0,0.010850694444444444,76.37803819444444,0)" xlink:href="#aX"/><use transform="matrix(0.010850694444444444,0,0,0.010850694444444444,89.51822916666666,0)" xlink:href="#az"/><use transform="matrix(0.010850694444444444,0,0,0.010850694444444444,102.84288194444441,0)" xlink:href="#aH"/><use transform="matrix(0.010850694444444444,0,0,0.010850694444444444,115.9722222222222,0)" xlink:href="#au"/></g><g id="U"><use transform="matrix(0.010850694444444444,0,0,0.010850694444444444,0,0)" xlink:href="#as"/><use transform="matrix(0.010850694444444444,0,0,0.010850694444444444,14.702690972222221,0)" xlink:href="#as"/><use transform="matrix(0.010850694444444444,0,0,0.010850694444444444,29.405381944444443,0)" xlink:href="#aD"/><use transform="matrix(0.010850694444444444,0,0,0.010850694444444444,44.73741319444444,0)" xlink:href="#aH"/><use transform="matrix(0.010850694444444444,0,0,0.010850694444444444,57.86675347222222,0)" xlink:href="#aZ"/><use transform="matrix(0.010850694444444444,0,0,0.010850694444444444,71.47352430555556,0)" xlink:href="#av"/><use transform="matrix(0.010850694444444444,0,0,0.010850694444444444,79.47048611111111,0)" xlink:href="#az"/><use transform="matrix(0.010850694444444444,0,0,0.010850694444444444,92.79513888888889,0)" xlink:href="#aF"/><use transform="matrix(0.010850694444444444,0,0,0.010850694444444444,98.17708333333333,0)" xlink:href="#aZ"/><use transform="matrix(0.010850694444444444,0,0,0.010850694444444444,111.78385416666666,0)" xlink:href="#ax"/><use transform="matrix(0.010850694444444444,0,0,0.010850694444444444,126.48654513888889,0)" xlink:href="#ax"/></g><g id="V"><use transform="matrix(0.010850694444444444,0,0,0.010850694444444444,0,0)" xlink:href="#aU"/><use transform="matrix(0.010850694444444444,0,0,0.010850694444444444,16.03732638888889,0)" xlink:href="#av"/><use transform="matrix(0.010850694444444444,0,0,0.010850694444444444,24.75043402777778,0)" xlink:href="#aF"/><use transform="matrix(0.010850694444444444,0,0,0.010850694444444444,30.13237847222222,0)" xlink:href="#aw"/><use transform="matrix(0.010850694444444444,0,0,0.010850694444444444,42.1875,0)" xlink:href="#au"/><use transform="matrix(0.010850694444444444,0,0,0.010850694444444444,55.143229166666664,0)" xlink:href="#av"/></g><g id="W"><use transform="matrix(0.010850694444444444,0,0,0.010850694444444444,0,0)" xlink:href="#be"/><use transform="matrix(0.010850694444444444,0,0,0.010850694444444444,20.07378472222222,0)" xlink:href="#az"/><use transform="matrix(0.010850694444444444,0,0,0.010850694444444444,33.3984375,0)" xlink:href="#aV"/><use transform="matrix(0.010850694444444444,0,0,0.010850694444444444,47.00520833333333,0)" xlink:href="#aF"/><use transform="matrix(0.010850694444444444,0,0,0.010850694444444444,52.38715277777778,0)" xlink:href="#aC"/><use transform="matrix(0.010850694444444444,0,0,0.010850694444444444,57.76909722222221,0)" xlink:href="#au"/></g><g id="X"><use transform="matrix(0.010850694444444444,0,0,0.010850694444444444,0,0)" xlink:href="#aD"/><use transform="matrix(0.010850694444444444,0,0,0.010850694444444444,15.33203125,0)" xlink:href="#aE"/><use transform="matrix(0.010850694444444444,0,0,0.010850694444444444,28.938802083333332,0)" xlink:href="#aE"/></g><g id="Y"><use transform="matrix(0.010850694444444444,0,0,0.010850694444444444,0,0)" xlink:href="#aD"/><use transform="matrix(0.010850694444444444,0,0,0.010850694444444444,15.33203125,0)" xlink:href="#aL"/><use transform="matrix(0.010850694444444444,0,0,0.010850694444444444,28.47222222222222,0)" xlink:href="#aG"/><use transform="matrix(0.010850694444444444,0,0,0.010850694444444444,35.7421875,0)" xlink:href="#aX"/><use transform="matrix(0.010850694444444444,0,0,0.010850694444444444,48.88237847222222,0)" xlink:href="#au"/><use transform="matrix(0.010850694444444444,0,0,0.010850694444444444,61.838107638888886,0)" xlink:href="#aH"/><use transform="matrix(0.010850694444444444,0,0,0.010850694444444444,74.96744791666666,0)" xlink:href="#aG"/><use transform="matrix(0.010850694444444444,0,0,0.010850694444444444,82.23741319444443,0)" xlink:href="#aF"/><use transform="matrix(0.010850694444444444,0,0,0.010850694444444444,87.61935763888887,0)" xlink:href="#aA"/><use transform="matrix(0.010850694444444444,0,0,0.010850694444444444,100.53168402777776,0)" xlink:href="#aB"/><use transform="matrix(0.010850694444444444,0,0,0.010850694444444444,113.00998263888887,0)" xlink:href="#aG"/><use transform="matrix(0.010850694444444444,0,0,0.010850694444444444,120.27994791666664,0)" xlink:href="#aF"/><use transform="matrix(0.010850694444444444,0,0,0.010850694444444444,125.66189236111109,0)" xlink:href="#az"/><use transform="matrix(0.010850694444444444,0,0,0.010850694444444444,138.98654513888886,0)" xlink:href="#aH"/></g><g id="Z"><use transform="matrix(0.010850694444444444,0,0,0.010850694444444444,0,0)" xlink:href="#aD"/><use transform="matrix(0.010850694444444444,0,0,0.010850694444444444,15.33203125,0)" xlink:href="#aN"/><use transform="matrix(0.010850694444444444,0,0,0.010850694444444444,27.061631944444443,0)" xlink:href="#aN"/><use transform="matrix(0.010850694444444444,0,0,0.010850694444444444,38.791232638888886,0)" xlink:href="#aF"/><use transform="matrix(0.010850694444444444,0,0,0.010850694444444444,44.17317708333333,0)" xlink:href="#aT"/><use transform="matrix(0.010850694444444444,0,0,0.010850694444444444,57.80164930555555,0)" xlink:href="#aH"/><use transform="matrix(0.010850694444444444,0,0,0.010850694444444444,70.93098958333333,0)" xlink:href="#au"/><use transform="matrix(0.010850694444444444,0,0,0.010850694444444444,83.88671875,0)" xlink:href="#aZ"/></g><g id="aa"><use transform="matrix(0.010850694444444444,0,0,0.010850694444444444,0,0)" xlink:href="#aK"/><use transform="matrix(0.010850694444444444,0,0,0.010850694444444444,13.975694444444445,0)" xlink:href="#az"/><use transform="matrix(0.010850694444444444,0,0,0.010850694444444444,27.30034722222222,0)" xlink:href="#aL"/><use transform="matrix(0.010850694444444444,0,0,0.010850694444444444,40.44053819444444,0)" xlink:href="#aG"/><use transform="matrix(0.010850694444444444,0,0,0.010850694444444444,47.49348958333333,0)" xlink:href="#au"/></g><g id="ab"><use transform="matrix(0.010850694444444444,0,0,0.010850694444444444,0,0)" xlink:href="#aK"/><use transform="matrix(0.010850694444444444,0,0,0.010850694444444444,13.975694444444445,0)" xlink:href="#au"/><use transform="matrix(0.010850694444444444,0,0,0.010850694444444444,26.931423611111104,0)" xlink:href="#aN"/><use transform="matrix(0.010850694444444444,0,0,0.010850694444444444,38.66102430555555,0)" xlink:href="#aG"/></g><g id="ac"><use transform="matrix(0.010850694444444444,0,0,0.010850694444444444,0,0)" xlink:href="#aP"/><use transform="matrix(0.010850694444444444,0,0,0.010850694444444444,14.192708333333332,0)" xlink:href="#aC"/><use transform="matrix(0.010850694444444444,0,0,0.010850694444444444,19.57465277777778,0)" xlink:href="#aB"/><use transform="matrix(0.010850694444444444,0,0,0.010850694444444444,32.052951388888886,0)" xlink:href="#aA"/><use transform="matrix(0.010850694444444444,0,0,0.010850694444444444,44.748263888888886,0)" xlink:href="#au"/></g><path d="M1096 418H916v-591h-14C865-111 790 24 577 24c-279 0-473-224-473-580 0-354 195-576 474-576 218 0 287 134 324 193h20v-179h174V418zM604-137c203 0 314-172 314-421 0-247-108-413-314-413-212 0-317 181-317 413 0 235 108 421 317 421" id="bk"/><g id="ad"><use transform="matrix(0.010850694444444444,0,0,0.010850694444444444,0,0)" xlink:href="#aK"/><use transform="matrix(0.010850694444444444,0,0,0.010850694444444444,13.975694444444445,0)" xlink:href="#au"/><use transform="matrix(0.010850694444444444,0,0,0.010850694444444444,26.931423611111104,0)" xlink:href="#bk"/><use transform="matrix(0.010850694444444444,0,0,0.010850694444444444,40.53819444444444,0)" xlink:href="#aL"/><use transform="matrix(0.010850694444444444,0,0,0.010850694444444444,53.678385416666664,0)" xlink:href="#au"/><use transform="matrix(0.010850694444444444,0,0,0.010850694444444444,66.63411458333333,0)" xlink:href="#aN"/><use transform="matrix(0.010850694444444444,0,0,0.010850694444444444,78.36371527777777,0)" xlink:href="#aG"/></g><path d="M180 0v-1490h224l606 953c40 63 108 177 176 312-27-437-7-821-13-1265h190V0h-226C860-448 622-778 356-1262c27 476 11 792 15 1262H180" id="bl"/><g id="ae"><use transform="matrix(0.010850694444444444,0,0,0.010850694444444444,0,0)" xlink:href="#bl"/><use transform="matrix(0.010850694444444444,0,0,0.010850694444444444,16.74262152777778,0)" xlink:href="#az"/><use transform="matrix(0.010850694444444444,0,0,0.010850694444444444,30.06727430555556,0)" xlink:href="#aG"/><use transform="matrix(0.010850694444444444,0,0,0.010850694444444444,37.337239583333336,0)" xlink:href="#aF"/><use transform="matrix(0.010850694444444444,0,0,0.010850694444444444,42.71918402777778,0)" xlink:href="#aJ"/><use transform="matrix(0.010850694444444444,0,0,0.010850694444444444,50.94401041666667,0)" xlink:href="#aF"/><use transform="matrix(0.010850694444444444,0,0,0.010850694444444444,56.32595486111112,0)" xlink:href="#aA"/><use transform="matrix(0.010850694444444444,0,0,0.010850694444444444,69.23828125,0)" xlink:href="#aB"/><use transform="matrix(0.010850694444444444,0,0,0.010850694444444444,81.71657986111111,0)" xlink:href="#aG"/><use transform="matrix(0.010850694444444444,0,0,0.010850694444444444,88.98654513888889,0)" xlink:href="#aF"/><use transform="matrix(0.010850694444444444,0,0,0.010850694444444444,94.36848958333333,0)" xlink:href="#az"/><use transform="matrix(0.010850694444444444,0,0,0.010850694444444444,107.69314236111111,0)" xlink:href="#aH"/></g><g id="af"><use transform="matrix(0.010850694444444444,0,0,0.010850694444444444,0,0)" xlink:href="#bf"/><use transform="matrix(0.010850694444444444,0,0,0.010850694444444444,16.23263888888889,0)" xlink:href="#av"/><use transform="matrix(0.010850694444444444,0,0,0.010850694444444444,24.94574652777778,0)" xlink:href="#aF"/><use transform="matrix(0.010850694444444444,0,0,0.010850694444444444,30.32769097222222,0)" xlink:href="#aO"/><use transform="matrix(0.010850694444444444,0,0,0.010850694444444444,49.79383680555556,0)" xlink:href="#au"/></g><g id="ag"><use transform="matrix(0.010850694444444444,0,0,0.010850694444444444,0,0)" xlink:href="#aK"/><use transform="matrix(0.010850694444444444,0,0,0.010850694444444444,14.301215277777777,0)" xlink:href="#aF"/><use transform="matrix(0.010850694444444444,0,0,0.010850694444444444,19.68315972222222,0)" xlink:href="#aN"/><use transform="matrix(0.010850694444444444,0,0,0.010850694444444444,31.412760416666664,0)" xlink:href="#bc"/></g><g id="ah"><use transform="matrix(0.010850694444444444,0,0,0.010850694444444444,0,0)" xlink:href="#be"/><use transform="matrix(0.010850694444444444,0,0,0.010850694444444444,20.07378472222222,0)" xlink:href="#aB"/><use transform="matrix(0.010850694444444444,0,0,0.010850694444444444,32.55208333333333,0)" xlink:href="#aE"/><use transform="matrix(0.010850694444444444,0,0,0.010850694444444444,46.15885416666666,0)" xlink:href="#aE"/><use transform="matrix(0.010850694444444444,0,0,0.010850694444444444,59.765624999999986,0)" xlink:href="#aF"/><use transform="matrix(0.010850694444444444,0,0,0.010850694444444444,65.14756944444443,0)" xlink:href="#aO"/><use transform="matrix(0.010850694444444444,0,0,0.010850694444444444,84.61371527777776,0)" xlink:href="#aT"/></g><g id="ai"><use transform="matrix(0.010850694444444444,0,0,0.010850694444444444,0,0)" xlink:href="#aD"/><use transform="matrix(0.010850694444444444,0,0,0.010850694444444444,15.33203125,0)" xlink:href="#aL"/><use transform="matrix(0.010850694444444444,0,0,0.010850694444444444,28.47222222222222,0)" xlink:href="#aG"/><use transform="matrix(0.010850694444444444,0,0,0.010850694444444444,35.7421875,0)" xlink:href="#aX"/><use transform="matrix(0.010850694444444444,0,0,0.010850694444444444,48.88237847222222,0)" xlink:href="#au"/><use transform="matrix(0.010850694444444444,0,0,0.010850694444444444,61.838107638888886,0)" xlink:href="#aH"/><use transform="matrix(0.010850694444444444,0,0,0.010850694444444444,74.96744791666666,0)" xlink:href="#aG"/><use transform="matrix(0.010850694444444444,0,0,0.010850694444444444,82.23741319444443,0)" xlink:href="#aF"/><use transform="matrix(0.010850694444444444,0,0,0.010850694444444444,87.61935763888887,0)" xlink:href="#aA"/><use transform="matrix(0.010850694444444444,0,0,0.010850694444444444,100.53168402777776,0)" xlink:href="#aB"/><use transform="matrix(0.010850694444444444,0,0,0.010850694444444444,113.00998263888887,0)" xlink:href="#aG"/><use transform="matrix(0.010850694444444444,0,0,0.010850694444444444,120.27994791666664,0)" xlink:href="#aF"/><use transform="matrix(0.010850694444444444,0,0,0.010850694444444444,125.66189236111109,0)" xlink:href="#az"/><use transform="matrix(0.010850694444444444,0,0,0.010850694444444444,138.98654513888886,0)" xlink:href="#aH"/></g><g id="aj"><use transform="matrix(0.010850694444444444,0,0,0.010850694444444444,0,0)" xlink:href="#be"/><use transform="matrix(0.010850694444444444,0,0,0.010850694444444444,20.07378472222222,0)" xlink:href="#aB"/><use transform="matrix(0.010850694444444444,0,0,0.010850694444444444,32.55208333333333,0)" xlink:href="#aE"/><use transform="matrix(0.010850694444444444,0,0,0.010850694444444444,46.15885416666666,0)" xlink:href="#aE"/><use transform="matrix(0.010850694444444444,0,0,0.010850694444444444,59.765624999999986,0)" xlink:href="#aF"/><use transform="matrix(0.010850694444444444,0,0,0.010850694444444444,65.14756944444443,0)" xlink:href="#aH"/><use transform="matrix(0.010850694444444444,0,0,0.010850694444444444,78.2769097222222,0)" xlink:href="#aT"/></g><g id="ak"><use transform="matrix(0.010850694444444444,0,0,0.010850694444444444,0,0)" xlink:href="#bi"/><use transform="matrix(0.010850694444444444,0,0,0.010850694444444444,13.35720486111111,0)" xlink:href="#aO"/><use transform="matrix(0.010850694444444444,0,0,0.010850694444444444,32.82335069444444,0)" xlink:href="#au"/><use transform="matrix(0.010850694444444444,0,0,0.010850694444444444,45.77907986111111,0)" xlink:href="#av"/><use transform="matrix(0.010850694444444444,0,0,0.010850694444444444,53.77604166666666,0)" xlink:href="#aT"/><use transform="matrix(0.010850694444444444,0,0,0.010850694444444444,67.40451388888889,0)" xlink:href="#au"/><use transform="matrix(0.010850694444444444,0,0,0.010850694444444444,80.36024305555556,0)" xlink:href="#aH"/><use transform="matrix(0.010850694444444444,0,0,0.010850694444444444,93.48958333333333,0)" xlink:href="#aA"/><use transform="matrix(0.010850694444444444,0,0,0.010850694444444444,105.75086805555556,0)" xlink:href="#aM"/></g><g id="al"><use transform="matrix(0.010850694444444444,0,0,0.010850694444444444,0,0)" xlink:href="#aD"/><use transform="matrix(0.010850694444444444,0,0,0.010850694444444444,15.33203125,0)" xlink:href="#aC"/><use transform="matrix(0.010850694444444444,0,0,0.010850694444444444,20.713975694444443,0)" xlink:href="#au"/><use transform="matrix(0.010850694444444444,0,0,0.010850694444444444,33.66970486111111,0)" xlink:href="#av"/><use transform="matrix(0.010850694444444444,0,0,0.010850694444444444,42.38281249999999,0)" xlink:href="#aG"/></g><g id="am"><use transform="matrix(0.010850694444444444,0,0,0.010850694444444444,0,0)" xlink:href="#aY"/><use transform="matrix(0.010850694444444444,0,0,0.010850694444444444,16.514756944444443,0)" xlink:href="#aS"/><use transform="matrix(0.010850694444444444,0,0,0.010850694444444444,30.859375,0)" xlink:href="#aS"/><use transform="matrix(0.010850694444444444,0,0,0.010850694444444444,45.20399305555556,0)" xlink:href="#aP"/><use transform="matrix(0.010850694444444444,0,0,0.010850694444444444,59.396701388888886,0)" xlink:href="#at"/></g><g id="an"><use transform="matrix(0.010850694444444444,0,0,0.010850694444444444,0,0)" xlink:href="#az"/><use transform="matrix(0.010850694444444444,0,0,0.010850694444444444,12.890624999999996,0)" xlink:href="#aw"/><use transform="matrix(0.010850694444444444,0,0,0.010850694444444444,24.94574652777778,0)" xlink:href="#au"/><use transform="matrix(0.010850694444444444,0,0,0.010850694444444444,37.90147569444444,0)" xlink:href="#av"/></g><path d="M692-1560L212 224H46l480-1784h166" id="bm"/><g id="ao"><use transform="matrix(0.010850694444444444,0,0,0.010850694444444444,0,0)" xlink:href="#aS"/><use transform="matrix(0.010850694444444444,0,0,0.010850694444444444,13.682725694444445,0)" xlink:href="#bf"/><use transform="matrix(0.010850694444444444,0,0,0.010850694444444444,29.915364583333336,0)" xlink:href="#aP"/><use transform="matrix(0.010850694444444444,0,0,0.010850694444444444,44.10807291666667,0)" xlink:href="#bm"/><use transform="matrix(0.010850694444444444,0,0,0.010850694444444444,52.11588541666667,0)" xlink:href="#aQ"/><use transform="matrix(0.010850694444444444,0,0,0.010850694444444444,58.08376736111112,0)" xlink:href="#aP"/></g><g id="aq"><use transform="matrix(0.010850694444444444,0,0,0.010850694444444444,0,0)" xlink:href="#az"/><use transform="matrix(0.010850694444444444,0,0,0.010850694444444444,12.890624999999996,0)" xlink:href="#aw"/><use transform="matrix(0.010850694444444444,0,0,0.010850694444444444,24.94574652777778,0)" xlink:href="#au"/><use transform="matrix(0.010850694444444444,0,0,0.010850694444444444,37.90147569444444,0)" xlink:href="#av"/></g><g id="ar"><use transform="matrix(0.010850694444444444,0,0,0.010850694444444444,0,0)" xlink:href="#aS"/><use transform="matrix(0.010850694444444444,0,0,0.010850694444444444,13.682725694444445,0)" xlink:href="#bf"/><use transform="matrix(0.010850694444444444,0,0,0.010850694444444444,29.915364583333336,0)" xlink:href="#aP"/><use transform="matrix(0.010850694444444444,0,0,0.010850694444444444,44.10807291666667,0)" xlink:href="#bm"/><use transform="matrix(0.010850694444444444,0,0,0.010850694444444444,52.11588541666667,0)" xlink:href="#aQ"/><use transform="matrix(0.010850694444444444,0,0,0.010850694444444444,58.08376736111112,0)" xlink:href="#aP"/></g></defs></g></svg>